<svg width="35" height="34" viewBox="0 0 35 34" fill="none" xmlns="http://www.w3.org/2000/svg">
<g clip-path="url(#clip0_232_2)">
<path fill-rule="evenodd" clip-rule="evenodd" d="M34.8396 17.7083C34.7521 16.7591 34.9417 15.4841 34.8396 14.3791C34.8103 13.8159 34.6718 13.2632 34.4313 12.75C34.2414 12.3844 33.9271 12.0941 33.5417 11.9283C32.9966 11.7205 32.4291 11.5732 31.85 11.4891C30.9261 11.3252 29.9892 11.2399 29.05 11.2341C27.6695 11.2422 26.2909 11.3369 24.9229 11.5175C21.8167 11.8716 22.8958 12.3108 22.8958 8.8683L22.7062 4.51914C22.7051 3.83095 22.6466 3.14398 22.5312 2.46497C22.4119 1.90372 22.0915 1.40176 21.6271 1.0483C21.3039 0.807748 20.9307 0.63854 20.5333 0.55247C20.0375 0.42497 19.4979 0.38247 19.075 0.29747C18.6893 0.235746 18.2992 0.202595 17.9083 0.198303H16.7563C15.7511 0.306851 14.7682 0.559892 13.8396 0.949136C13.1714 1.19257 12.5719 1.58573 12.0896 2.09664C11.908 2.30786 11.7872 2.56203 11.7396 2.8333C11.6949 3.30453 11.6949 3.77874 11.7396 4.24997L12.0896 11.05C12.1085 11.1512 12.1634 11.2427 12.2447 11.3086C12.326 11.3745 12.4285 11.4106 12.5344 11.4106C12.6402 11.4106 12.7428 11.3745 12.824 11.3086C12.9053 11.2427 12.9602 11.1512 12.9792 11.05L12.7312 4.24997V3.15914C12.7323 3.00604 12.7833 2.85721 12.8771 2.73414C13.2621 2.36044 13.7314 2.0791 14.2479 1.91247C15.3769 1.45107 16.5971 1.2382 17.8208 1.28914C18.8706 1.32498 19.9043 1.55079 20.8688 1.95497C21.1102 2.16209 21.2743 2.44105 21.3354 2.7483C21.4134 3.36864 21.4475 3.99344 21.4375 4.6183L21.5542 8.8683C21.4413 9.80899 21.378 10.7547 21.3646 11.7016C21.3508 12.102 21.4739 12.4955 21.7146 12.8208C21.9861 13.0525 22.3307 13.1874 22.6917 13.2033C23.4897 13.1897 24.285 13.1091 25.0688 12.9625C26.25 12.75 27.3 12.75 28.35 12.75C29.4218 12.7362 30.4922 12.8311 31.5437 13.0333C33.4833 13.3875 33.2208 14.3083 33.2354 14.5208C33.3083 15.6541 33.1042 16.9433 33.2354 17.8925C33.2354 18.4733 33.3812 19.1958 33.3812 19.8758C33.3859 20.2371 33.3267 20.5965 33.2063 20.9383C33.2063 21.1225 32.8854 21.1366 32.6813 21.1791C32.2146 21.2925 31.7188 21.3208 31.3542 21.3916C30.6396 21.505 29.8958 21.6041 29.0792 21.6608C27.8833 21.7458 26.6583 21.7741 25.5646 21.7741C25.1125 21.7741 24.4125 21.6466 23.8 21.6183C23.4452 21.6043 23.0904 21.6474 22.75 21.7458C22.567 21.8009 22.4033 21.9042 22.2772 22.0442C22.151 22.1843 22.0673 22.3556 22.0354 22.5391C21.9868 22.9439 21.9868 23.3527 22.0354 23.7575C22.0354 24.7916 22.1375 25.84 22.1521 26.8883V28.135C22.1148 29.0598 21.9928 29.9795 21.7875 30.8833C21.6962 31.3807 21.4696 31.8454 21.1313 32.2291C21.0146 32.3425 20.7812 32.2291 20.5771 32.2291C20.3729 32.2291 19.9792 32.1583 19.7604 32.1441C18.653 32.0807 17.5428 32.0807 16.4354 32.1441C15.9968 32.1469 15.5585 32.1232 15.1229 32.0733C14.2625 31.9741 13.8542 31.195 13.5625 30.2883C13.1913 28.7006 12.9668 27.0839 12.8917 25.4575C12.9336 24.8112 12.9336 24.1629 12.8917 23.5166C12.8534 23.2958 12.7705 23.0845 12.6479 22.8949C12.5252 22.7052 12.3652 22.541 12.1771 22.4116C11.8413 22.2112 11.4706 22.0719 11.0833 22.0008C10.3147 21.8426 9.53458 21.7432 8.75 21.7033C7.86042 21.6183 6.92708 21.4908 6.00833 21.3491C5.08958 21.2075 4.15625 21.0091 3.28125 20.8108L1.29792 20.4C1.25813 20.1181 1.23379 19.8344 1.225 19.55C1.225 18.7566 1.35625 17.8641 1.35625 17.5383C1.30552 16.706 1.33971 15.8708 1.45833 15.045C1.49365 14.575 1.68272 14.1282 1.99792 13.77C2.19118 13.5936 2.42681 13.4669 2.68333 13.4016C3.17917 13.2741 3.73333 13.26 4.22917 13.175C5.31896 13.0026 6.42088 12.9126 7.525 12.9058C8.63435 12.9284 9.74063 13.0278 10.8354 13.2033C10.9005 13.2135 10.9671 13.2112 11.0313 13.1965C11.0955 13.1817 11.156 13.1548 11.2095 13.1173C11.263 13.0798 11.3084 13.0325 11.343 12.9779C11.3777 12.9234 11.4009 12.8628 11.4115 12.7996C11.422 12.7363 11.4196 12.6716 11.4044 12.6093C11.3892 12.5469 11.3615 12.4881 11.3229 12.4361C11.2844 12.3842 11.2356 12.3401 11.1795 12.3064C11.1233 12.2728 11.0609 12.2502 10.9958 12.24C9.85016 12.0363 8.68946 11.9226 7.525 11.9C6.35802 11.875 5.19118 11.9557 4.03958 12.1408C3.48108 12.1825 2.92583 12.2582 2.37708 12.3675C1.92523 12.4679 1.51112 12.6886 1.18125 13.005C0.702699 13.5176 0.397326 14.1603 0.30625 14.8466C0.175224 15.7378 0.126419 16.6386 0.160417 17.5383C0.0581722 18.4416 0.00462681 19.3495 0 20.2583C0.00819942 20.6208 0.141757 20.9701 0.379167 21.25C0.572114 21.4193 0.801186 21.545 1.05 21.6183C1.64792 21.8025 2.59583 21.9158 2.98958 22.015C3.87917 22.2275 4.82708 22.44 5.78958 22.61C6.75208 22.78 7.7 22.9216 8.63333 23.0066C9.1 23.0066 9.78542 23.1058 10.4125 23.2191C10.7255 23.255 11.028 23.3513 11.3021 23.5025C11.4333 23.5875 11.4188 23.7716 11.4479 23.9416V25.5708C11.4615 27.6011 11.796 29.6174 12.4396 31.5491C12.6304 32.0661 12.9615 32.5234 13.3979 32.8726C13.8343 33.2217 14.3598 33.4497 14.9187 33.5325C15.4021 33.5962 15.8893 33.6293 16.3771 33.6316C17.4361 33.577 18.4973 33.577 19.5562 33.6316C20.0999 33.7252 20.6528 33.7585 21.2042 33.7308C21.5974 33.6907 21.9662 33.5264 22.2542 33.2633C22.7879 32.6899 23.1597 31.9919 23.3333 31.2375C23.5718 30.2468 23.7134 29.2365 23.7563 28.22C23.786 27.7482 23.786 27.2751 23.7563 26.8033C23.7563 25.7691 23.6542 24.7208 23.6542 23.7008V23.205C24.2667 23.205 24.9958 23.3608 25.4625 23.3608C26.6 23.3608 27.8687 23.3608 29.1083 23.2333C29.9542 23.1625 30.7854 23.0775 31.5583 22.9358C32.2773 22.8756 32.9841 22.7182 33.6583 22.4683C34.1091 22.2781 34.4688 21.9287 34.6646 21.4908C34.8778 20.9623 34.9914 20.4009 35 19.8333C35 19.1108 34.8979 18.3316 34.8396 17.7083Z" fill="#00C2FF"/>
</g>
<defs>
<clipPath id="clip0_232_2">
<rect width="35" height="34" fill="white"/>
</clipPath>
</defs>
</svg>
