<svg width="24" height="24" viewBox="0 0 24 24" fill="none" xmlns="http://www.w3.org/2000/svg">
<path d="M7.93639 5.06356L7.93663 5.0638L14.8823 12L7.93784 18.935C7.9376 18.9352 7.93736 18.9355 7.93712 18.9357C7.79686 19.075 7.68552 19.2407 7.6095 19.4231C7.53335 19.6059 7.49414 19.802 7.49414 20C7.49414 20.198 7.53335 20.3941 7.6095 20.5769C7.68539 20.759 7.79647 20.9244 7.93638 21.0636C8.07553 21.2035 8.24091 21.3146 8.42308 21.3904C8.60586 21.4666 8.80192 21.5058 8.99994 21.5058C9.19796 21.5058 9.39401 21.4666 9.5768 21.3904C9.75928 21.3144 9.92492 21.2031 10.0642 21.0628C10.0645 21.0626 10.0647 21.0623 10.0649 21.0621L18.062 13.065C18.0623 13.0647 18.0626 13.0644 18.063 13.0641C18.2031 12.9248 18.3144 12.7593 18.3904 12.5769C18.4665 12.3941 18.5057 12.198 18.5057 12C18.5057 11.802 18.4665 11.6059 18.3904 11.4231C18.3144 11.2407 18.203 11.075 18.0628 10.9358C18.0626 10.9355 18.0623 10.9353 18.062 10.935L10.0635 2.93645C9.78142 2.65438 9.39885 2.49591 8.99994 2.49591C8.60103 2.49591 8.21846 2.65438 7.93639 2.93645C7.65431 3.21852 7.49585 3.60109 7.49585 4C7.49585 4.39891 7.65431 4.78148 7.93639 5.06356Z" fill="#DEAA08" stroke="#DEAA08"/>
</svg>
