<svg width="235" height="38" viewBox="0 0 235 38" fill="none" xmlns="http://www.w3.org/2000/svg">
<path d="M21.7004 11.6385C21.9444 10.987 22.0664 10.3285 22.0664 9.6607C22.0664 8.99289 21.9574 8.35061 21.7411 7.73399C21.5229 7.11737 21.1902 6.57065 20.7409 6.09132C20.2917 5.61198 19.7408 5.2514 19.0882 5.01173C17.918 4.66968 16.7959 4.56722 15.7218 4.70451C14.6477 4.84179 13.7233 5.15827 12.9468 5.65389C12.1704 6.14951 11.5936 6.75912 11.2128 7.47812C10.832 8.19712 10.7636 8.95102 11.0076 9.73751C11.2535 10.5263 11.8506 11.3035 12.8027 12.0737C13.7548 12.8439 15.1837 13.5047 17.0879 14.0515C18.1213 14.3587 19.0605 14.6681 19.9035 14.9752C20.7465 15.2824 21.4952 15.6268 22.1477 16.0014C23.2366 16.618 24.1073 17.3882 24.7599 18.3119C25.4125 19.238 25.8341 20.2736 26.0245 21.4207C26.2149 22.5679 26.1816 23.7756 25.9228 25.0415C25.6639 26.3073 25.1686 27.5752 24.4328 28.841C22.9649 31.1702 21.3657 32.9084 19.6372 34.0556C17.9106 35.2027 15.9843 36.0499 13.862 36.599C12.2573 37.0109 10.5972 37.0783 8.88344 36.806C7.16971 36.5315 5.6242 35.9404 4.25063 35.0329C2.87706 34.1254 1.78263 32.8852 0.965514 31.3099C0.150245 29.7346 -0.14917 27.8336 0.0689749 25.6091L7.7003 24.2223C7.0736 24.8389 6.70757 25.5928 6.59849 26.4817C6.48942 27.3705 6.59108 28.2362 6.90351 29.0762C7.21594 29.9162 7.71324 30.626 8.39356 31.2077C9.07387 31.7894 9.90393 32.0803 10.8819 32.0803C11.7249 32.1501 12.5956 32.0709 13.494 31.8498C14.3907 31.6265 15.1948 31.2588 15.901 30.7446C16.6091 30.2327 17.1859 29.5648 17.6352 28.7411C18.0844 27.9197 18.2951 26.9611 18.2674 25.8652C18.2119 24.7692 17.8126 23.9129 17.0639 23.2963C16.3152 22.6797 15.4037 22.1677 14.3297 21.7559C13.2556 21.3464 12.1187 20.9507 10.9226 20.5761C9.72464 20.1991 8.66531 19.7011 7.73912 19.0868C6.84066 18.5726 6.10674 17.9909 5.5355 17.3394C4.96426 16.6879 4.52244 15.9875 4.21001 15.2336C3.89758 14.4797 3.69974 13.7187 3.61839 12.9485C3.53705 12.1783 3.53705 11.3988 3.61839 10.6124C3.78108 8.93468 4.42074 7.31532 5.5355 5.75865C6.65211 4.20197 8.18835 2.90824 10.1461 1.87977C11.3163 1.22824 12.6418 0.725465 14.1245 0.3648C15.6071 0.00646171 17.2876 -0.088931 19.164 0.0832576C21.3141 0.220543 23.1368 0.853434 24.6324 1.98429C26.128 3.11515 27.2317 4.7068 27.9379 6.76143L21.6949 11.6408L21.7004 11.6385ZM46.2269 35.6776C45.0844 35.6776 44.0713 35.6682 43.1876 35.6519C42.304 35.6356 41.2631 35.6077 40.0652 35.5751C40.5015 32.7666 41.0303 29.8579 41.657 26.8423C42.2837 23.829 42.8401 20.9692 43.33 18.2631C42.5683 17.3044 41.7105 16.8602 40.7584 16.9276C39.8064 16.9951 38.9006 17.4231 38.0446 18.212C37.1887 19.0008 36.4455 20.0875 35.8206 21.4744C35.1939 22.8612 34.8409 24.4107 34.7595 26.1233C34.7059 26.4654 34.6856 26.8168 34.6985 27.1775C34.7114 27.5358 34.7465 27.887 34.8001 28.2291C34.9647 29.36 35.2771 30.1371 35.7393 30.5653C36.2015 30.9934 36.7043 31.1727 37.2496 31.1052C37.7932 31.0354 38.3385 30.7795 38.882 30.3351C39.4256 29.8907 39.8619 29.3414 40.1891 28.6922C40.1614 30.0278 39.8822 31.261 39.3516 32.3895C38.821 33.5181 38.1278 34.4023 37.27 35.0352C36.4123 35.6681 35.4472 35.9939 34.3731 36.0125C33.299 36.0288 32.2028 35.6264 31.0881 34.805C30.1914 34.086 29.4963 33.1691 29.0064 32.0568C28.5165 30.9446 28.1967 29.7371 28.0469 28.4363C27.8972 27.1356 27.9046 25.7998 28.0672 24.4293C28.2299 23.0588 28.5294 21.7488 28.9639 20.4993C29.3983 19.2498 29.9437 18.1026 30.5963 17.0578C31.2489 16.0131 31.9846 15.1824 32.7999 14.5658C33.4525 13.9491 34.2752 13.4372 35.2679 13.0253C36.2606 12.6158 37.294 12.3482 38.37 12.2296C39.444 12.1086 40.4922 12.1784 41.5127 12.4343C42.5332 12.6926 43.4095 13.1976 44.1453 13.9516L44.6352 11.6385L50.7155 11.5874L46.2269 35.6776ZM50.7968 35.524L54.2243 16.0551H52.0207L52.8766 11.5338H54.9582L56.9566 1.46779L63.0776 1.6214L61.0774 11.5338L66.9543 11.4827C66.4922 12.4064 66.0633 13.1766 65.6676 13.7932C65.2739 14.4098 64.8321 14.8893 64.3422 15.2313C63.8523 15.5734 63.2939 15.813 62.669 15.9503C62.0423 16.0876 61.2955 16.1573 60.4248 16.1573L56.7921 35.6751L50.7931 35.5217L50.7968 35.524ZM73.6096 11.6385C72.8202 13.2487 72.2434 14.8242 71.8755 16.3645C71.5095 17.9049 71.3172 19.4289 71.3042 20.9367C71.2913 22.4445 71.4411 23.9593 71.7535 25.4834C72.0659 27.0075 72.5226 28.5736 73.1197 30.1838C73.9091 29.3624 74.7188 28.3945 75.547 27.2822C76.3771 26.17 77.1535 24.9878 77.8727 23.7383C78.5937 22.4887 79.2259 21.2394 79.7713 19.9898C80.3148 18.7403 80.7085 17.5838 80.9544 16.5227C81.1726 15.5291 81.1577 14.5798 80.9137 13.6723C80.6678 12.7648 80.056 12.1225 79.078 11.7456L86.7907 11.6433C87.4433 12.5345 87.7909 13.6117 87.8315 14.8798C87.8722 16.1456 87.7354 17.4558 87.423 18.81C87.1106 20.1619 86.6687 21.4975 86.0974 22.8168C85.5262 24.1362 84.9402 25.274 84.3431 26.2326C82.9547 28.492 81.6144 30.3677 80.324 31.8569C79.0317 33.3461 77.7044 34.5886 76.3456 35.5799H71.7757C70.7146 33.9022 69.8235 32.0521 69.1025 30.0324C68.3815 28.0127 67.8712 25.9489 67.5718 23.843C67.2723 21.7372 67.2039 19.6407 67.3666 17.5512C67.5311 15.4616 67.9378 13.4932 68.5922 11.6433H73.6114L73.6096 11.6385ZM106.747 35.6776C105.605 35.6776 104.592 35.6682 103.708 35.6519C102.824 35.6356 101.784 35.6077 100.586 35.5751C101.022 32.7666 101.551 29.8579 102.177 26.8423C102.804 23.829 103.36 20.9692 103.85 18.2631C103.089 17.3044 102.231 16.8602 101.279 16.9276C100.327 16.9951 99.421 17.4231 98.565 18.212C97.7091 19.0008 96.9659 20.0875 96.341 21.4744C95.7143 22.8612 95.3612 24.4107 95.2799 26.1233C95.2263 26.4654 95.2059 26.8168 95.2189 27.1775C95.2318 27.5358 95.2669 27.887 95.3205 28.2291C95.4851 29.36 95.7975 30.1371 96.2597 30.5653C96.7218 30.9934 97.2247 31.1727 97.77 31.1052C98.3135 31.0354 98.8589 30.7795 99.4024 30.3351C99.9459 29.8907 100.382 29.3414 100.709 28.6922C100.682 30.0278 100.403 31.261 99.872 32.3895C99.3414 33.5181 98.6481 34.4023 97.7903 35.0352C96.9326 35.6681 95.9676 35.9939 94.8935 36.0125C93.8194 36.0288 92.7231 35.6264 91.6084 34.805C90.7117 34.086 90.0167 33.1691 89.5268 32.0568C89.0369 30.9446 88.7171 29.7371 88.5673 28.4363C88.4176 27.1356 88.4249 25.7998 88.5876 24.4293C88.7503 23.0588 89.0498 21.7488 89.4843 20.4993C89.9187 19.2498 90.4641 18.1026 91.1167 17.0578C91.7692 16.0131 92.505 15.1824 93.3203 14.5658C93.9729 13.9491 94.7955 13.4372 95.7883 13.0253C96.781 12.6158 97.8144 12.3482 98.8903 12.2296C99.9644 12.1086 101.013 12.1784 102.033 12.4343C103.054 12.6926 103.93 13.1976 104.666 13.9516L105.156 11.6385L111.236 11.5874L106.747 35.6776ZM131.682 1.36554C130.322 3.65983 129.397 6.0401 128.907 8.50658C128.418 10.9707 128.194 13.386 128.235 15.7501C128.275 18.1119 128.499 20.3481 128.907 22.454C129.314 24.5598 129.75 26.4002 130.213 27.9755C131.056 26.8121 131.886 25.5857 132.701 24.3036C133.518 23.0192 134.293 21.7278 135.027 20.4248C135.762 19.124 136.435 17.8653 137.047 16.6506C137.659 15.436 138.197 14.3307 138.659 13.3371C139.395 11.8991 139.979 10.5542 140.414 9.30463C140.85 8.0551 141.101 6.92439 141.17 5.91453C141.238 4.90466 141.081 4.02275 140.7 3.26885C140.319 2.51494 139.68 1.88205 138.783 1.36781H146.415C147.176 2.01933 147.707 2.85002 148.006 3.85988C148.306 4.86974 148.428 5.9819 148.372 7.19885C148.317 8.41348 148.128 9.68159 147.801 11.0009C147.476 12.3203 147.073 13.621 146.597 14.9055C146.122 16.1899 145.612 17.4139 145.067 18.5773C144.523 19.7408 144.006 20.7505 143.516 21.6068C142.835 22.8401 142.074 24.1223 141.231 25.4603C140.388 26.7959 139.53 28.0896 138.659 29.3391C137.789 30.5887 136.925 31.7614 136.067 32.8574C135.211 33.9533 134.415 34.8609 133.681 35.5799L128.906 35.5285C128.088 34.0556 127.382 32.3709 126.783 30.4698C126.184 28.5688 125.694 26.5747 125.315 24.4852C124.935 22.3957 124.661 20.2644 124.498 18.0911C124.336 15.9178 124.267 13.8119 124.295 11.7735C124.323 9.73518 124.458 7.8179 124.703 6.02155C124.948 4.22288 125.288 2.67308 125.724 1.37235H131.682V1.36554ZM164.371 35.6776C163.228 35.6776 162.215 35.6682 161.331 35.6519C160.448 35.6356 159.407 35.6077 158.209 35.5751C158.645 32.7666 159.174 29.8579 159.801 26.8423C160.428 23.829 160.984 20.9692 161.474 18.2631C160.712 17.3044 159.854 16.8602 158.902 16.9276C157.95 16.9951 157.044 17.4231 156.189 18.212C155.333 19.0008 154.589 20.0875 153.965 21.4744C153.338 22.8612 152.985 24.4107 152.903 26.1233C152.85 26.4654 152.829 26.8168 152.842 27.1775C152.855 27.5358 152.89 27.887 152.944 28.2291C153.108 29.36 153.421 30.1371 153.883 30.5653C154.345 30.9934 154.848 31.1727 155.393 31.1052C155.937 31.0354 156.482 30.7795 157.026 30.3351C157.569 29.8907 158.006 29.3414 158.333 28.6922C158.305 30.0278 158.026 31.261 157.495 32.3895C156.965 33.5181 156.272 34.4023 155.414 35.0352C154.556 35.6681 153.591 35.9939 152.517 36.0125C151.443 36.0288 150.347 35.6264 149.232 34.805C148.335 34.086 147.64 33.1691 147.15 32.0568C146.66 30.9446 146.341 29.7371 146.191 28.4363C146.041 27.1356 146.048 25.7998 146.211 24.4293C146.374 23.0588 146.673 21.7488 147.108 20.4993C147.542 19.2498 148.088 18.1026 148.74 17.0578C149.393 16.0131 150.129 15.1824 150.944 14.5658C151.596 13.9491 152.419 13.4372 153.412 13.0253C154.404 12.6158 155.438 12.3482 156.514 12.2296C157.588 12.1086 158.636 12.1784 159.657 12.4343C160.677 12.6926 161.553 13.1976 162.289 13.9516L162.779 11.6385L168.859 11.5874L164.371 35.6776ZM183.795 19.6524C183.985 19.208 184.107 18.7285 184.163 18.2142C184.218 17.7023 184.183 17.2137 184.061 16.7506C183.939 16.2899 183.741 15.8945 183.469 15.571C183.198 15.2453 182.843 15.0313 182.408 14.9289C181.428 14.6543 180.517 14.7053 179.674 15.0823C178.831 15.4592 178.247 15.9643 177.92 16.5972C177.594 17.2301 177.635 17.9166 178.042 18.6519C178.45 19.3895 179.415 19.9781 180.939 20.4225C181.565 20.6296 182.205 20.8344 182.858 21.0392C183.51 21.244 184.163 21.4836 184.815 21.7582C185.631 22.1002 186.265 22.6145 186.712 23.2986C187.161 23.9827 187.44 24.7551 187.55 25.6091C187.659 26.4654 187.585 27.3729 187.324 28.3316C187.065 29.2903 186.638 30.2326 186.039 31.1563C184.815 32.9015 183.508 34.186 182.122 35.0097C180.735 35.8311 179.225 36.4313 177.592 36.8083C176.285 37.1155 175.001 37.1852 173.736 37.013C172.472 36.8409 171.355 36.4314 170.39 35.7798C169.425 35.1283 168.689 34.2302 168.186 33.083C167.684 31.9359 167.539 30.5397 167.757 28.8969L174.45 27.7149C174.069 28.1267 173.817 28.6154 173.695 29.1785C173.573 29.7439 173.579 30.2838 173.716 30.7957C173.853 31.3099 174.11 31.7636 174.49 32.1568C174.871 32.5501 175.374 32.7991 176.001 32.9015C176.463 33.0039 176.966 33.0132 177.511 32.9272C178.055 32.8411 178.565 32.6527 179.042 32.3618C179.517 32.0709 179.933 31.6777 180.286 31.1797C180.639 30.6841 180.844 30.0768 180.898 29.3578C180.953 29.0157 180.918 28.6899 180.796 28.3804C180.674 28.0733 180.517 27.8151 180.327 27.6103C180.136 27.4056 179.926 27.2332 179.694 27.0959C179.463 26.9586 179.28 26.8564 179.144 26.7889C178.029 26.3445 177.055 26 176.226 25.7627C175.396 25.523 174.546 25.1112 173.675 24.5295C172.451 23.6732 171.621 22.6797 171.187 21.5512C170.752 20.4203 170.656 19.2661 170.9 18.084C171.146 16.9043 171.723 15.7734 172.634 14.6937C173.546 13.614 174.764 12.7159 176.287 11.9969C176.75 11.7572 177.206 11.5338 177.655 11.329C178.105 11.1243 178.58 10.9615 179.083 10.8405C179.585 10.7195 180.136 10.6427 180.735 10.6101C181.334 10.5752 182 10.5752 182.736 10.6101C184.422 10.7125 185.838 11.1755 186.98 11.9969C188.123 12.8183 188.925 13.984 189.387 15.4895L183.797 19.6499L183.795 19.6524ZM189.019 35.524L192.447 16.0551H190.243L191.099 11.5338H193.181L195.179 1.46779L201.3 1.6214L199.3 11.5338L205.177 11.4827C204.714 12.4064 204.286 13.1766 203.89 13.7932C203.496 14.4098 203.054 14.8893 202.564 15.2313C202.075 15.5734 201.516 15.813 200.891 15.9503C200.265 16.0876 199.518 16.1573 198.647 16.1573L195.015 35.6751L189.015 35.5217L189.019 35.524ZM218.933 11.6385H225.137L220.811 35.524L214.934 35.6262L215.302 33.9324C214.622 34.3094 214.017 34.6421 213.487 34.9329C212.956 35.2238 212.418 35.4472 211.875 35.6008C211.331 35.7544 210.745 35.8497 210.12 35.8823C209.493 35.9172 208.759 35.866 207.916 35.7287C207.046 35.5565 206.317 35.2494 205.733 34.805C205.149 34.3606 204.672 33.8113 204.306 33.1621C203.938 32.5106 203.674 31.7752 203.511 30.9539C203.347 30.1325 203.252 29.2576 203.225 28.3339C203.225 26.826 203.321 25.3556 203.511 23.9176C203.701 22.4796 203.96 21.0672 204.286 19.6803C204.611 18.2935 204.979 16.9321 205.388 15.5965C205.796 14.2609 206.203 12.9415 206.611 11.6408H212.938C212.638 12.5995 212.351 13.4814 212.08 14.2865C211.808 15.0916 211.529 15.9479 211.244 16.8554C210.958 17.7629 210.678 18.7822 210.407 19.913C210.135 21.0416 209.876 22.4119 209.632 24.0221C209.307 26.1465 209.279 27.7965 209.551 28.9785C209.822 30.1606 210.612 30.7841 211.917 30.8539C213.087 30.7166 214.026 30.1093 214.733 29.0296C215.441 27.9523 216.052 26.2303 216.568 23.8662L218.935 11.6408L218.933 11.6385Z" fill="#10743A"/>
<path d="M225.679 8.54694V2.59728H223.995V1.38726H228.509V2.59728H226.832V8.54694H225.681H225.679ZM229.517 8.54694V1.38476H231.242L232.262 6.26892L233.269 1.38476H235V8.54694H233.935L233.931 2.90905L232.809 8.54694H231.702L230.585 2.90905L230.581 8.54694H229.517Z" fill="#10743A"/>
</svg>
