<svg width="227" height="71" viewBox="0 0 227 71" fill="none" xmlns="http://www.w3.org/2000/svg">
<g filter="url(#filter0_d_204_2)">
<path d="M4 6C4 4.34315 5.34315 3 7 3H216C217.657 3 219 4.34315 219 6V59C219 60.6569 217.657 62 216 62H7C5.34315 62 4 60.6569 4 59V6Z" fill="white"/>
<path d="M7 2C4.79086 2 3 3.79086 3 6V59C3 61.2091 4.79087 63 7 63H216C218.209 63 220 61.2091 220 59V6C220 3.79086 218.209 2 216 2H7Z" stroke="#1B1642" stroke-width="2"/>
</g>
<defs>
<filter id="filter0_d_204_2" x="0" y="0" width="227" height="71" filterUnits="userSpaceOnUse" color-interpolation-filters="sRGB">
<feFlood flood-opacity="0" result="BackgroundImageFix"/>
<feColorMatrix in="SourceAlpha" type="matrix" values="0 0 0 0 0 0 0 0 0 0 0 0 0 0 0 0 0 0 127 0" result="hardAlpha"/>
<feOffset dx="2" dy="3"/>
<feGaussianBlur stdDeviation="2"/>
<feComposite in2="hardAlpha" operator="out"/>
<feColorMatrix type="matrix" values="0 0 0 0 0 0 0 0 0 0 0 0 0 0 0 0 0 0 0.19 0"/>
<feBlend mode="normal" in2="BackgroundImageFix" result="effect1_dropShadow_204_2"/>
<feBlend mode="normal" in="SourceGraphic" in2="effect1_dropShadow_204_2" result="shape"/>
</filter>
</defs>
</svg>
