<svg width="78" height="30" viewBox="0 0 78 30" fill="none" xmlns="http://www.w3.org/2000/svg">
<path d="M67.7707 16.3913C62.0062 21.8956 53.7392 27.2256 44.5966 28.3164C44.4788 28.3682 44.3637 28.4069 44.2723 28.4356C44.0688 28.4997 43.8214 28.5622 43.5399 28.6207C42.9748 28.7383 42.2297 28.8486 41.3417 28.9204C39.5649 29.064 37.1809 29.056 34.4758 28.623C29.0571 27.7556 22.3317 25.1778 16.6562 18.6937C15.3327 17.1815 14.0584 15.7291 12.8431 14.4456C13.2822 15.5219 13.5721 16.4576 13.6954 17.2644C13.8856 18.5095 13.7018 19.648 12.8171 20.4472L12.8118 20.452L12.8063 20.4568C12.6363 20.606 12.3539 20.8237 11.9759 20.8974C11.5039 20.9893 11.0887 20.8244 10.7947 20.5614C10.5501 20.3424 10.3875 20.0578 10.2713 19.8176C10.1469 19.5603 10.0279 19.2499 9.90727 18.9002L9.90654 18.8981C8.64187 15.205 6.43251 11.6856 2.33677 7.0338L2.33594 7.03286C1.86704 6.49897 1.45777 5.86195 1.22365 5.22394C1.00684 4.63306 0.853719 3.79231 1.30475 3.07172C1.801 2.27889 2.72786 2.074 3.64064 2.13749C4.57052 2.20218 5.77233 2.54977 7.29143 3.20959C12.2218 5.35107 15.3107 6.30201 20.3447 7.18491L20.3464 7.18522C21.2487 7.34503 22.0345 7.59035 22.6674 7.89955C23.2797 8.19865 23.8397 8.60208 24.1668 9.12984C24.3373 9.40494 24.4569 9.73585 24.4542 10.104C24.4514 10.4793 24.3217 10.8221 24.109 11.1086C23.7099 11.6463 23.0418 11.9659 22.3264 12.16C21.9233 12.2698 21.3815 12.2623 20.8748 12.2279C20.3232 12.1905 19.6547 12.1072 18.9156 11.9887C17.844 11.8168 16.5948 11.5659 15.2891 11.2563C16.3132 12.4323 17.0111 13.3713 17.6548 14.2375C17.6853 14.2786 17.7158 14.3195 17.7461 14.3603C18.7856 15.7583 19.7064 16.9717 21.7931 18.8259L21.8076 18.8388L21.8217 18.8523C25.78 22.6527 31.0961 24.3829 35.547 25.0698C37.7635 25.4119 39.734 25.4901 41.1634 25.4455C41.8803 25.4231 42.4443 25.3704 42.8258 25.3095C42.9231 25.294 43.0022 25.279 43.0647 25.2654L43.1659 25.1159L43.6395 25.0677C57.8249 23.6257 68.8557 12.043 73.6201 1.71362C73.7615 1.40266 74.0447 1.11754 74.463 1.02551C74.8386 0.942873 75.1624 1.05195 75.366 1.15991C75.7705 1.37433 76.057 1.75809 76.2113 2.15193C76.5402 2.97856 76.3965 3.98576 76.0944 4.94182C75.7777 5.9438 75.2219 7.08948 74.4788 8.30989C72.9897 10.7555 70.6801 13.6132 67.7707 16.3913Z" fill="#1B1642" stroke="black" stroke-width="2"/>
</svg>
