<svg width="144" height="92" viewBox="0 0 144 92" fill="none" xmlns="http://www.w3.org/2000/svg">
<path fill-rule="evenodd" clip-rule="evenodd" d="M5.05939 91.1786C10.0532 90.9333 23.2636 85.4826 34.9798 86.7701C38.7268 87.1835 40.074 86.995 40.265 86.0409C40.7426 83.6557 31.367 82.0574 21.8958 82.8736C16.5699 83.3246 77.9082 47.1794 105.464 28.4337C112.818 23.421 139.32 5.82251 141.117 4.59506C144.86 2.12401 144.923 1.3248 141.51 0.21047C137.826 -1.00168 131.744 2.50121 99.4059 24.552C94.5215 27.8824 16.8088 77.2886 16.6189 77.0264C16.581 76.9739 17.1964 75.111 18.0212 72.9285C21.1663 64.4838 21.0676 62.7975 17.3662 61.6721C14.0761 60.6717 12.457 61.9788 11.0353 66.6585C8.82449 74.0685 5.56877 80.6444 1.52963 85.8062C-1.38631 89.4744 -0.091813 91.4833 5.05939 91.1786Z" fill="#1B1642" fill-opacity="0.82"/>
</svg>
