<svg width="44" height="72" viewBox="0 0 44 72" fill="none" xmlns="http://www.w3.org/2000/svg">
<path d="M39.4656 14.2216C42.4499 21.6251 44.3078 31.2565 41.8282 40.062C41.8319 40.1902 41.8241 40.3108 41.8162 40.4055C41.7986 40.6167 41.7626 40.8676 41.7099 41.1482C41.6039 41.7116 41.4221 42.4373 41.1491 43.2792C40.6028 44.9641 39.6804 47.1474 38.2337 49.4621C35.3361 54.0985 30.3233 59.277 22.026 61.9941C20.0913 62.6276 18.2314 63.2389 16.5533 63.8612C17.7302 63.8723 18.7192 63.9655 19.5245 64.1612C20.7736 64.4648 21.7829 65.0721 22.1997 66.1959L22.2023 66.2028L22.2047 66.2096C22.2807 66.424 22.3778 66.7672 22.3023 67.1418C22.2084 67.6075 21.8961 67.9219 21.5381 68.0891C21.2392 68.2287 20.9091 68.2687 20.6375 68.283C20.3469 68.2984 20.0082 68.2884 19.6317 68.2649L19.6294 68.2647C15.6575 68.0073 11.4863 68.6834 5.52174 70.6556L5.52054 70.656C4.83741 70.8809 4.07945 71.0119 3.38733 70.9818C2.74769 70.9539 1.89067 70.7721 1.37984 70.0766C0.818347 69.3122 0.983651 68.3819 1.39196 67.5729C1.80913 66.7463 2.59744 65.7783 3.80298 64.6383C7.71796 60.9363 9.8021 58.4666 12.5685 54.1863L12.5695 54.1848C13.0663 53.4191 13.5987 52.7934 14.1324 52.3323C14.6486 51.8864 15.2426 51.5288 15.8645 51.4316C16.1887 51.3809 16.5476 51.3978 16.8958 51.5423C17.2513 51.6898 17.5272 51.9422 17.7174 52.2496C18.0735 52.8251 18.1182 53.5623 18.027 54.292C17.976 54.7031 17.7614 55.1963 17.5345 55.6477C17.2876 56.1391 16.9526 56.7201 16.5571 57.3525C15.9855 58.2663 15.2722 59.3118 14.4821 60.3869C15.9769 59.9022 17.1264 59.6236 18.1871 59.3665C18.2377 59.3543 18.288 59.3421 18.3381 59.3299C20.0571 58.9128 21.5567 58.5336 24.109 57.3306L24.1266 57.3223L24.1446 57.3147C29.2549 55.1406 32.9308 50.9251 35.2886 47.1041C36.4627 45.2013 37.2932 43.4229 37.8 42.094C38.0541 41.4274 38.2209 40.8894 38.31 40.5158C38.3326 40.4209 38.3488 40.3428 38.3599 40.2804L38.2575 40.1301L38.394 39.6767C42.4784 26.1074 35.7776 11.5437 27.8583 3.21095C27.6159 2.95861 27.4557 2.58655 27.5292 2.16813C27.595 1.7939 27.8206 1.54104 27.9988 1.39718C28.3534 1.11086 28.8234 0.995143 29.2548 1.00479C30.1626 1.02036 31.0604 1.53995 31.8483 2.18521C32.6737 2.86123 33.5426 3.81186 34.4099 4.96256C36.1478 7.2685 37.9595 10.4854 39.4656 14.2216Z" fill="#1B1642" stroke="black" stroke-width="2"/>
</svg>
