<svg width="170" height="35" viewBox="0 0 170 35" fill="none" xmlns="http://www.w3.org/2000/svg">
<path fill-rule="evenodd" clip-rule="evenodd" d="M166.628 14.8819C162.286 12.4033 148.14 9.89278 138.985 2.50813C136.058 0.145076 134.819 -0.420448 134.129 0.280723C132.406 2.03365 139.417 8.42155 147.847 12.8265C152.583 15.3102 80.8978 12.7835 47.3048 13.7613C38.3341 14.0306 6.26424 14.6085 4.07073 14.6764C-0.450439 14.746 -0.946232 15.3854 1.31101 18.1594C3.74256 21.1616 10.8058 21.4806 50.2574 20.2894C56.2161 20.1097 149.038 20.2675 149.053 20.5905C149.056 20.6551 147.505 21.8939 145.602 23.2893C138.275 28.7134 137.424 30.1873 139.918 33.1258C142.136 35.7378 144.223 35.507 148.013 32.3285C153.979 27.2738 160.364 23.4838 166.625 21.3064C171.113 19.7836 171.135 17.3949 166.628 14.8819Z" fill="#1B1642" fill-opacity="0.82"/>
</svg>
