<svg width="216" height="34" viewBox="0 0 216 34" fill="none" xmlns="http://www.w3.org/2000/svg">
<path d="M20.8197 10.6646C21.0538 10.0676 21.1709 9.46417 21.1709 8.85224C21.1709 8.24032 21.0663 7.65179 20.8587 7.08677C20.6495 6.52175 20.3302 6.02079 19.8992 5.58156C19.4682 5.14234 18.9396 4.81193 18.3135 4.59232C17.1908 4.2789 16.1142 4.18501 15.0837 4.31081C14.0532 4.43661 13.1663 4.7266 12.4214 5.18074C11.6765 5.63489 11.1231 6.19348 10.7577 6.85231C10.3924 7.51115 10.3268 8.20196 10.5609 8.92262C10.7968 9.64542 11.3697 10.3576 12.2831 11.0633C13.1965 11.769 14.5675 12.3746 16.3944 12.8756C17.3859 13.1571 18.287 13.4406 19.0957 13.722C19.9045 14.0035 20.6228 14.3191 21.2489 14.6623C22.2936 15.2274 23.129 15.933 23.7551 16.7795C24.3812 17.6281 24.7856 18.577 24.9683 19.6281C25.151 20.6793 25.119 21.786 24.8707 22.9459C24.6224 24.1058 24.1471 25.2676 23.4412 26.4275C22.0329 28.5618 20.4986 30.1545 18.8403 31.2057C17.1837 32.2568 15.3356 33.033 13.2994 33.5362C11.7599 33.9136 10.1671 33.9754 8.52291 33.7259C6.87873 33.4743 5.39595 32.9327 4.07812 32.1012C2.76029 31.2697 1.71029 30.1332 0.92633 28.6898C0.144147 27.2463 -0.143116 25.5043 0.0661756 23.466L7.38779 22.1952C6.78652 22.7603 6.43534 23.4511 6.3307 24.2656C6.22605 25.08 6.32359 25.8733 6.62334 26.643C6.92308 27.4127 7.40021 28.063 8.05291 28.5961C8.70562 29.1291 9.50198 29.3956 10.4402 29.3956C11.249 29.4596 12.0844 29.387 12.9464 29.1845C13.8066 28.9798 14.5782 28.6429 15.2557 28.1717C15.935 27.7026 16.4885 27.0906 16.9195 26.3359C17.3505 25.5832 17.5526 24.7049 17.526 23.7007C17.4728 22.6964 17.0897 21.9118 16.3713 21.3468C15.653 20.7817 14.7786 20.3126 13.7481 19.9353C12.7176 19.56 11.6269 19.1975 10.4793 18.8542C9.32998 18.5088 8.31363 18.0524 7.42503 17.4895C6.56303 17.0183 5.85891 16.4853 5.31085 15.8883C4.76279 15.2913 4.3389 14.6496 4.03915 13.9588C3.7394 13.268 3.54958 12.5707 3.47154 11.8649C3.3935 11.1592 3.3935 10.4449 3.47154 9.72426C3.62763 8.18698 4.24133 6.70314 5.31085 5.27673C6.38213 3.85033 7.85603 2.66487 9.73433 1.72246C10.8571 1.12546 12.1288 0.664755 13.5512 0.334272C14.9737 0.00592096 16.586 -0.0814888 18.3863 0.0762902C20.449 0.202087 22.1978 0.782014 23.6327 1.81824C25.0676 2.85446 26.1265 4.31291 26.804 6.1956L20.8144 10.6667L20.8197 10.6646ZM44.3508 32.6919C43.2547 32.6919 42.2827 32.6833 41.4349 32.6684C40.5871 32.6535 39.5885 32.6279 38.4392 32.598C38.8577 30.0245 39.3651 27.3593 39.9663 24.596C40.5676 21.8349 41.1015 19.2144 41.5715 16.7347C40.8407 15.8563 40.0177 15.4492 39.1043 15.511C38.1908 15.5729 37.3218 15.9651 36.5006 16.6879C35.6794 17.4107 34.9664 18.4065 34.3669 19.6773C33.7656 20.948 33.4269 22.3679 33.3488 23.9372C33.2974 24.2506 33.2779 24.5726 33.2903 24.9031C33.3027 25.2315 33.3364 25.5533 33.3878 25.8667C33.5457 26.903 33.8454 27.6151 34.2888 28.0074C34.7322 28.3997 35.2147 28.564 35.7379 28.5022C36.2593 28.4382 36.7826 28.2037 37.304 27.7965C37.8255 27.3893 38.2441 26.886 38.5581 26.2911C38.5315 27.5149 38.2636 28.6449 37.7546 29.679C37.2455 30.7131 36.5804 31.5233 35.7575 32.1033C34.9345 32.6832 34.0086 32.9818 32.9781 32.9988C31.9476 33.0137 30.8959 32.645 29.8264 31.8924C28.9661 31.2335 28.2992 30.3933 27.8292 29.3742C27.3592 28.355 27.0523 27.2485 26.9087 26.0566C26.765 24.8648 26.7721 23.6408 26.9282 22.3849C27.0842 21.1291 27.3716 19.9288 27.7884 18.7838C28.2052 17.6388 28.7284 16.5877 29.3545 15.6304C29.9806 14.673 30.6865 13.9118 31.4687 13.3468C32.0948 12.7818 32.8841 12.3127 33.8366 11.9353C34.789 11.5601 35.7805 11.3149 36.8127 11.2061C37.8432 11.0953 38.8489 11.1592 39.8279 11.3937C40.807 11.6304 41.6478 12.0932 42.3537 12.784L42.8237 10.6646L48.6573 10.6177L44.3508 32.6919ZM48.7353 32.5512L52.0237 14.7115H49.9095L50.7307 10.5686H52.7277L54.6451 1.34496L60.5176 1.48572L58.5986 10.5686L64.237 10.5217C63.7936 11.3682 63.3821 12.0739 63.0026 12.6389C62.6248 13.2039 62.2009 13.6433 61.7309 13.9567C61.2609 14.2701 60.7252 14.4897 60.1257 14.6155C59.5244 14.7413 58.8079 14.8052 57.9725 14.8052L54.4872 32.6896L48.7317 32.5491L48.7353 32.5512ZM70.6222 10.6646C69.8648 12.14 69.3115 13.5836 68.9585 14.9951C68.6073 16.4066 68.4228 17.803 68.4104 19.1846C68.398 20.5663 68.5417 21.9543 68.8414 23.3509C69.1412 24.7474 69.5793 26.1824 70.1522 27.6578C70.9095 26.9052 71.6864 26.0183 72.481 24.9991C73.2774 23.9799 74.0223 22.8967 74.7123 21.7517C75.404 20.6068 76.0106 19.4619 76.5338 18.317C77.0553 17.172 77.433 16.1123 77.6689 15.14C77.8782 14.2296 77.864 13.3597 77.6299 12.5281C77.394 11.6966 76.8069 11.108 75.8687 10.7626L83.2683 10.6689C83.8944 11.4856 84.2279 12.4726 84.267 13.6346C84.306 14.7945 84.1747 15.995 83.875 17.2359C83.5752 18.4747 83.1513 19.6985 82.6032 20.9074C82.0552 22.1163 81.4929 23.1589 80.9201 24.0373C79.588 26.1077 78.3021 27.8264 77.0641 29.1909C75.8243 30.5555 74.5508 31.6941 73.2472 32.6024H68.8627C67.8447 31.0651 66.9898 29.3699 66.298 27.5192C65.6063 25.6685 65.1167 23.7773 64.8294 21.8477C64.5421 19.9181 64.4765 17.9971 64.6326 16.0824C64.7904 14.1677 65.1806 12.364 65.8085 10.6689H70.6239L70.6222 10.6646ZM102.415 32.6919C101.319 32.6919 100.347 32.6833 99.4991 32.6684C98.6513 32.6535 97.6527 32.6279 96.5034 32.598C96.922 30.0245 97.4292 27.3593 98.0305 24.596C98.6317 21.8349 99.1657 19.2144 99.6357 16.7347C98.9049 15.8563 98.0819 15.4492 97.1685 15.511C96.2551 15.5729 95.386 15.9651 94.5648 16.6879C93.7436 17.4107 93.0306 18.4065 92.4311 19.6773C91.8298 20.948 91.4911 22.3679 91.413 23.9372C91.3616 24.2506 91.3421 24.5726 91.3545 24.9031C91.3669 25.2315 91.4006 25.5533 91.452 25.8667C91.6099 26.903 91.9096 27.6151 92.353 28.0074C92.7964 28.3997 93.2789 28.564 93.8021 28.5022C94.3236 28.4382 94.8468 28.2037 95.3682 27.7965C95.8897 27.3893 96.3083 26.886 96.6222 26.2911C96.5956 27.5149 96.3278 28.6449 95.8188 29.679C95.3097 30.7131 94.6446 31.5233 93.8216 32.1033C92.9986 32.6832 92.0728 32.9818 91.0423 32.9988C90.0118 33.0137 88.96 32.645 87.8905 31.8924C87.0303 31.2335 86.3634 30.3933 85.8934 29.3742C85.4234 28.355 85.1165 27.2485 84.9729 26.0566C84.8292 24.8648 84.8363 23.6408 84.9924 22.3849C85.1484 21.1291 85.4358 19.9288 85.8526 18.7838C86.2694 17.6388 86.7927 16.5877 87.4188 15.6304C88.0449 14.673 88.7508 13.9118 89.5329 13.3468C90.159 12.7818 90.9483 12.3127 91.9008 11.9353C92.8532 11.5601 93.8447 11.3149 94.8769 11.2061C95.9074 11.0953 96.9131 11.1592 97.8922 11.3937C98.8712 11.6304 99.712 12.0932 100.418 12.784L100.888 10.6646L106.721 10.6177L102.415 32.6919ZM126.338 1.25126C125.033 3.35356 124.146 5.53463 123.676 7.79471C123.206 10.0527 122.991 12.2658 123.03 14.4321C123.069 16.5962 123.284 18.6453 123.676 20.5749C124.066 22.5045 124.485 24.1909 124.928 25.6344C125.737 24.5683 126.533 23.4446 127.315 22.2698C128.099 21.0928 128.842 19.9095 129.547 18.7155C130.253 17.5236 130.898 16.3702 131.485 15.2572C132.072 14.1442 132.588 13.1314 133.032 12.221C133.738 10.9033 134.298 9.67093 134.715 8.52597C135.134 7.381 135.375 6.34492 135.441 5.41957C135.506 4.49422 135.355 3.68611 134.99 2.99529C134.625 2.30448 134.011 1.72455 133.151 1.25334H140.472C141.203 1.85035 141.712 2.61151 141.999 3.53687C142.287 4.46222 142.404 5.4813 142.351 6.59642C142.297 7.7094 142.117 8.87138 141.803 10.0803C141.49 11.2892 141.104 12.4812 140.648 13.6581C140.192 14.8351 139.703 15.9566 139.179 17.0227C138.658 18.0888 138.161 19.014 137.691 19.7987C137.038 20.9287 136.308 22.1036 135.499 23.3296C134.69 24.5535 133.867 25.7389 133.032 26.8839C132.196 28.0289 131.368 29.1035 130.545 30.1077C129.724 31.112 128.96 31.9435 128.255 32.6024L123.674 32.5553C122.89 31.2057 122.213 29.6619 121.638 27.92C121.063 26.178 120.593 24.3508 120.23 22.4362C119.864 20.5215 119.602 18.5685 119.446 16.5771C119.29 14.5857 119.224 12.656 119.251 10.7883C119.277 8.92049 119.407 7.16366 119.642 5.51764C119.877 3.86949 120.203 2.44938 120.622 1.25751H126.338V1.25126ZM157.7 32.6919C156.604 32.6919 155.632 32.6833 154.784 32.6684C153.936 32.6535 152.938 32.6279 151.788 32.598C152.207 30.0245 152.714 27.3593 153.315 24.596C153.917 21.8349 154.451 19.2144 154.921 16.7347C154.19 15.8563 153.367 15.4492 152.453 15.511C151.54 15.5729 150.671 15.9651 149.85 16.6879C149.029 17.4107 148.315 18.4065 147.716 19.6773C147.115 20.948 146.776 22.3679 146.698 23.9372C146.646 24.2506 146.627 24.5726 146.639 24.9031C146.652 25.2315 146.685 25.5533 146.737 25.8667C146.895 26.903 147.194 27.6151 147.638 28.0074C148.081 28.3997 148.564 28.564 149.087 28.5022C149.608 28.4382 150.132 28.2037 150.653 27.7965C151.175 27.3893 151.593 26.886 151.907 26.2911C151.88 27.5149 151.613 28.6449 151.104 29.679C150.595 30.7131 149.929 31.5233 149.106 32.1033C148.284 32.6832 147.358 32.9818 146.327 32.9988C145.297 33.0137 144.245 32.645 143.175 31.8924C142.315 31.2335 141.648 30.3933 141.178 29.3742C140.708 28.355 140.401 27.2485 140.258 26.0566C140.114 24.8648 140.121 23.6408 140.277 22.3849C140.433 21.1291 140.721 19.9288 141.138 18.7838C141.554 17.6388 142.078 16.5877 142.704 15.6304C143.33 14.673 144.036 13.9118 144.818 13.3468C145.444 12.7818 146.233 12.3127 147.186 11.9353C148.138 11.5601 149.13 11.3149 150.162 11.2061C151.192 11.0953 152.198 11.1592 153.177 11.3937C154.156 11.6304 154.997 12.0932 155.703 12.784L156.173 10.6646L162.006 10.6177L157.7 32.6919ZM176.336 18.0078C176.518 17.6005 176.635 17.1612 176.689 16.69C176.742 16.2209 176.708 15.7731 176.591 15.3488C176.474 14.9267 176.284 14.5644 176.023 14.268C175.763 13.9695 175.422 13.7734 175.005 13.6796C174.065 13.428 173.191 13.4747 172.382 13.8201C171.573 14.1655 171.013 14.6284 170.699 15.2083C170.387 15.7882 170.426 16.4172 170.816 17.091C171.208 17.7669 172.134 18.3062 173.595 18.7134C174.197 18.9032 174.81 19.0909 175.436 19.2785C176.063 19.4662 176.689 19.6857 177.315 19.9373C178.097 20.2508 178.705 20.722 179.134 21.3488C179.565 21.9757 179.833 22.6835 179.938 23.466C180.043 24.2506 179.972 25.0822 179.722 25.9607C179.473 26.8391 179.064 27.7025 178.489 28.549C177.315 30.1481 176.061 31.3252 174.73 32.08C173.4 32.8326 171.951 33.3826 170.385 33.728C169.131 34.0094 167.898 34.0734 166.685 33.9156C165.472 33.7578 164.401 33.3826 163.475 32.7856C162.549 32.1886 161.843 31.3656 161.361 30.3145C160.878 29.2633 160.74 27.984 160.949 26.4787L167.37 25.3955C167.004 25.7729 166.763 26.2207 166.646 26.7367C166.529 27.2548 166.534 27.7495 166.666 28.2186C166.797 28.6898 167.044 29.1055 167.409 29.4658C167.774 29.8261 168.257 30.0543 168.858 30.1481C169.301 30.2419 169.784 30.2505 170.307 30.1716C170.829 30.0928 171.318 29.9201 171.776 29.6536C172.231 29.3871 172.63 29.0267 172.969 28.5704C173.308 28.1163 173.505 27.5598 173.556 26.901C173.609 26.5875 173.576 26.289 173.459 26.0054C173.342 25.724 173.191 25.4874 173.008 25.2998C172.826 25.1121 172.623 24.9542 172.402 24.8284C172.18 24.7026 172.004 24.6089 171.873 24.5471C170.804 24.1398 169.869 23.8242 169.074 23.6068C168.278 23.3871 167.462 23.0098 166.627 22.4768C165.453 21.6921 164.656 20.7817 164.239 19.7476C163.823 18.7114 163.73 17.6538 163.964 16.5707C164.2 15.4897 164.754 14.4534 165.628 13.4641C166.503 12.4747 167.671 11.6518 169.133 10.9929C169.576 10.7733 170.014 10.5686 170.445 10.381C170.876 10.1933 171.332 10.0442 171.815 9.93331C172.297 9.82244 172.826 9.75203 173.4 9.72218C173.975 9.6902 174.613 9.6902 175.319 9.72218C176.937 9.81599 178.296 10.2403 179.392 10.9929C180.488 11.7456 181.257 12.8137 181.701 14.1932L176.337 18.0055L176.336 18.0078ZM181.348 32.5512L184.636 14.7115H182.522L183.343 10.5686H185.341L187.258 1.34496L193.13 1.48572L191.211 10.5686L196.85 10.5217C196.406 11.3682 195.995 12.0739 195.615 12.6389C195.237 13.2039 194.814 13.6433 194.344 13.9567C193.874 14.2701 193.338 14.4897 192.738 14.6155C192.137 14.7413 191.421 14.8052 190.585 14.8052L187.1 32.6896L181.344 32.5491L181.348 32.5512ZM210.048 10.6646H216L211.85 32.5512L206.211 32.6449L206.564 31.0928C205.911 31.4382 205.331 31.7431 204.822 32.0096C204.313 32.2761 203.797 32.4808 203.276 32.6215C202.754 32.7623 202.192 32.8497 201.593 32.8795C200.991 32.9115 200.287 32.8646 199.478 32.7388C198.643 32.581 197.944 32.2996 197.384 31.8924C196.823 31.4851 196.366 30.9818 196.014 30.3869C195.661 29.7899 195.408 29.1161 195.252 28.3635C195.094 27.6108 195.003 26.8092 194.977 25.9627C194.977 24.5811 195.069 23.2337 195.252 21.916C195.434 20.5984 195.683 19.3042 195.995 18.0334C196.307 16.7626 196.66 15.5152 197.052 14.2913C197.444 13.0675 197.834 11.8585 198.226 10.6667H204.296C204.008 11.5451 203.733 12.3532 203.473 13.0909C203.212 13.8287 202.944 14.6133 202.671 15.4448C202.396 16.2764 202.128 17.2104 201.867 18.2466C201.607 19.2807 201.358 20.5364 201.124 22.0118C200.812 23.9585 200.785 25.4703 201.046 26.5534C201.307 27.6366 202.064 28.2079 203.316 28.2719C204.439 28.1461 205.34 27.5896 206.018 26.6003C206.697 25.6131 207.284 24.0352 207.779 21.869L210.049 10.6667L210.048 10.6646Z" fill="#10743A"/>
</svg>
