<svg width="60" height="78" viewBox="0 0 60 78" fill="none" xmlns="http://www.w3.org/2000/svg">
<path d="M29.837 74.4984C15.7437 74.5518 3.55663 63.1723 3.50172 49.0803C3.48758 45.4608 4.24368 41.8798 5.71981 38.5751C7.19594 35.2703 9.35833 32.3175 12.0634 29.9126L20.3746 22.5202C25.7822 17.7159 29.1039 10.7158 29.5604 3.51368L31.1037 3.50784C35.7847 9.47761 37.3137 16.8914 37.5396 23.3965C37.8068 30.9725 43.9867 38.2298 51.5338 37.5284L53.1815 37.374C55.0025 40.9377 55.9589 44.8799 55.9734 48.8816C56.0283 62.9736 43.9303 74.4451 29.837 74.4984ZM29.837 74.4984C36.47 74.4733 42.162 68.9889 42.1357 62.2516C42.1221 58.7486 40.6276 55.4241 38.0351 53.1161L34.0952 49.6126C31.2721 46.716 30.4884 43.6387 30.4884 43.6387L28.9451 43.6446C28.9451 43.6446 28.1855 46.7276 25.3849 49.6456L21.4694 53.1788C20.1926 54.3385 19.1741 55.754 18.4805 57.3333C17.7868 58.9125 17.4334 60.6202 17.4432 62.3451C17.4694 69.0824 23.2009 74.5236 29.837 74.4984Z" stroke="#FF0000" stroke-width="7"/>
</svg>
