<svg xmlns="http://www.w3.org/2000/svg" fill="none" viewBox="-7.5 -7.5 24 24" id="Fire-Hazard--Streamline-Guidance.svg"><desc>Fire Hazard Streamline Icon: https://streamlinehq.com</desc><path stroke="#000000" d="M4.5 8.8125c-1.71225 0 -3.1875 -1.38825 -3.1875 -3.1005000000000003a3.1005000000000003 3.1005000000000003 0 0 1 1.04925 -2.325L3.375 2.4926250000000003c0.65925 -0.58125 1.066125 -1.43025 1.125 -2.3051250000000003h0.1875c0.5658749999999999 0.7275 0.748125 1.629 0.7725 2.4195 0.028874999999999998 0.920625 0.7762499999999999 1.80525 1.6935 1.7235l0.20025 -0.018000000000000002a3.0975 3.0975 0 0 1 0.33375 1.3995000000000002c0 1.71225 -1.47525 3.1005000000000003 -3.1875 3.1005000000000003Zm0 0c0.805875 0 1.5 -0.6637500000000001 1.5 -1.482375 0 -0.42562500000000003 -0.18 -0.8302499999999999 -0.49387499999999995 -1.111875l-0.477 -0.4275c-0.341625 -0.35324999999999995 -0.435375 -0.7275 -0.435375 -0.7275h-0.1875s-0.09375 0.37424999999999997 -0.435375 0.7275l-0.477375 0.4275A1.4932500000000002 1.4932500000000002 0 0 0 3 7.330125000000001C3 8.14875 3.6937499999999996 8.8125 4.5 8.8125Z" stroke-width="15"></path></svg>