<svg xmlns="http://www.w3.org/2000/svg" fill="none" viewBox="-1.5 -1.5 24 24" id="Fire-Hazard--Streamline-Guidance.svg"><desc>Fire Hazard Streamline Icon: https://streamlinehq.com</desc><path stroke="#000000" d="M10.5 20.5625c-3.99525 0 -7.4375 -3.23925 -7.4375 -7.234500000000001a7.234500000000001 7.234500000000001 0 0 1 2.44825 -5.425L7.875 5.816125c1.5382500000000001 -1.35625 2.487625 -3.33725 2.625 -5.378625h0.4375c1.3203749999999999 1.6975 1.745625 3.801 1.8025 5.6455 0.067375 2.1481250000000003 1.8112499999999998 4.21225 3.9515000000000002 4.0215l0.46725000000000005 -0.042a7.2275 7.2275 0 0 1 0.77875 3.2655000000000003c0 3.99525 -3.44225 7.234500000000001 -7.4375 7.234500000000001Zm0 0c1.880375 0 3.5 -1.54875 3.5 -3.458875 0 -0.993125 -0.42 -1.93725 -1.152375 -2.594375l-1.113 -0.9974999999999999c-0.7971250000000001 -0.8242499999999999 -1.015875 -1.6975 -1.015875 -1.6975h-0.4375s-0.21875 0.87325 -1.015875 1.6975l-1.113875 0.9974999999999999A3.4842500000000003 3.4842500000000003 0 0 0 7 17.103625C7 19.01375 8.61875 20.5625 10.5 20.5625Z" stroke-width="3"></path></svg>