<svg xmlns="http://www.w3.org/2000/svg" fill="none" viewBox="-50 -50 2400 2400" height="2400" width="2400" id="Fire-Hazard--Streamline-Guidance.svg"><desc>Fire Hazard Streamline Icon: https://streamlinehq.com</desc><path stroke="#000000" d="M1150 2252.083333333333c-437.575 0 -814.5833333333333 -354.775 -814.5833333333333 -792.35a792.35 792.35 0 0 1 268.14166666666665 -594.1666666666666L862.5 637.0041666666666c168.475 -148.54166666666666 272.45416666666665 -365.5083333333333 287.5 -589.0875h47.916666666666664c144.61249999999998 185.91666666666666 191.1875 416.3 197.41666666666666 618.3166666666666 7.379166666666666 235.27083333333331 198.37499999999997 461.34166666666664 432.7833333333333 440.45l51.175 -4.6a791.5833333333333 791.5833333333333 0 0 1 85.29166666666666 357.65c0 437.575 -377.0083333333333 792.35 -814.5833333333333 792.35Zm0 0c205.94583333333333 0 383.3333333333333 -169.625 383.3333333333333 -378.82916666666665 0 -108.77083333333333 -45.99999999999999 -212.17499999999998 -126.21249999999999 -284.1458333333333l-121.89999999999999 -109.24999999999999c-87.30416666666666 -90.27499999999999 -111.2625 -185.91666666666666 -111.2625 -185.91666666666666h-47.916666666666664s-23.958333333333332 95.64166666666667 -111.2625 185.91666666666666l-121.99583333333332 109.24999999999999A381.60833333333335 381.60833333333335 0 0 0 766.6666666666666 1873.2541666666666C766.6666666666666 2082.4583333333335 943.9583333333333 2252.083333333333 1150 2252.083333333333Z" stroke-width="100"></path></svg>