<svg xmlns="http://www.w3.org/2000/svg" fill="none" viewBox="-2.5 -2.5 24 24" id="Fire-Hazard--Streamline-Guidance.svg"><desc>Fire Hazard Streamline Icon: https://streamlinehq.com</desc><path stroke="#000000" d="M9.5 18.604166666666664c-3.61475 0 -6.729166666666666 -2.9307499999999997 -6.729166666666666 -6.5455000000000005a6.5455000000000005 6.5455000000000005 0 0 1 2.2150833333333333 -4.908333333333333L7.125 5.262208333333334c1.39175 -1.2270833333333333 2.2507083333333333 -3.0194166666666664 2.375 -4.866375h0.3958333333333333c1.1946249999999998 1.5358333333333332 1.579375 3.439 1.6308333333333334 5.107833333333333 0.06095833333333333 1.9435416666666667 1.6387499999999997 3.8110833333333334 3.5751666666666666 3.6385l0.42275 -0.038a6.539166666666667 6.539166666666667 0 0 1 0.7045833333333333 2.9545c0 3.61475 -3.1144166666666666 6.5455000000000005 -6.729166666666666 6.5455000000000005Zm0 0c1.7012916666666666 0 3.1666666666666665 -1.4012499999999999 3.1666666666666665 -3.129458333333333 0 -0.8985416666666667 -0.37999999999999995 -1.7527499999999998 -1.042625 -2.3472916666666666l-1.007 -0.9024999999999999c-0.7212083333333333 -0.7457499999999999 -0.919125 -1.5358333333333332 -0.919125 -1.5358333333333332h-0.3958333333333333s-0.19791666666666666 0.7900833333333332 -0.919125 1.5358333333333332l-1.0077916666666666 0.9024999999999999A3.152416666666667 3.152416666666667 0 0 0 6.333333333333333 15.474708333333334C6.333333333333333 17.202916666666667 7.797916666666666 18.604166666666664 9.5 18.604166666666664Z" stroke-width="5"></path></svg>