<svg xmlns="http://www.w3.org/2000/svg" fill="none" viewBox="-1 -1 24 24" id="Fire-Hazard--Streamline-Guidance.svg"><desc>Fire Hazard Streamline Icon: https://streamlinehq.com</desc><path stroke="#000000" d="M11 21.541666666666664c-4.185499999999999 0 -7.791666666666666 -3.3935 -7.791666666666666 -7.579000000000001a7.579000000000001 7.579000000000001 0 0 1 2.564833333333333 -5.683333333333334L8.25 6.093083333333333c1.6115 -1.4208333333333334 2.6060833333333333 -3.4961666666666664 2.75 -5.63475h0.4583333333333333c1.3832499999999999 1.7783333333333333 1.82875 3.982 1.8883333333333332 5.914333333333333 0.07058333333333333 2.2504166666666667 1.8974999999999997 4.412833333333333 4.139666666666667 4.213l0.4895 -0.044a7.571666666666666 7.571666666666666 0 0 1 0.8158333333333333 3.4210000000000003c0 4.185499999999999 -3.6061666666666667 7.579000000000001 -7.791666666666666 7.579000000000001Zm0 0c1.9699166666666665 0 3.6666666666666665 -1.6225 3.6666666666666665 -3.623583333333333 0 -1.0404166666666665 -0.43999999999999995 -2.0295 -1.20725 -2.7179166666666665l-1.166 -1.045c-0.8350833333333333 -0.8634999999999999 -1.06425 -1.7783333333333333 -1.06425 -1.7783333333333333h-0.4583333333333333s-0.22916666666666666 0.9148333333333333 -1.06425 1.7783333333333333l-1.1669166666666666 1.045A3.650166666666667 3.650166666666667 0 0 0 7.333333333333333 17.918083333333332C7.333333333333333 19.919166666666666 9.029166666666667 21.541666666666664 11 21.541666666666664Z" stroke-width="2"></path></svg>