<svg xmlns="http://www.w3.org/2000/svg" fill="none" viewBox="0 0 24 24" id="Fire-Hazard--Streamline-Guidance.svg"><desc>Fire Hazard Streamline Icon: https://streamlinehq.com</desc><path stroke="#000000" d="M12 23.5c-4.566 0 -8.5 -3.702 -8.5 -8.268a8.268 8.268 0 0 1 2.798 -6.2L9 6.647c1.758 -1.55 2.843 -3.814 3 -6.147h0.5c1.509 1.94 1.995 4.344 2.06 6.452 0.077 2.455 2.07 4.814 4.516 4.596l0.534 -0.048a8.26 8.26 0 0 1 0.89 3.732c0 4.566 -3.934 8.268 -8.5 8.268Zm0 0c2.149 0 4 -1.77 4 -3.953 0 -1.135 -0.48 -2.214 -1.317 -2.965l-1.272 -1.14c-0.911 -0.942 -1.161 -1.94 -1.161 -1.94h-0.5s-0.25 0.998 -1.161 1.94l-1.273 1.14A3.982 3.982 0 0 0 8 19.547C8 21.73 9.85 23.5 12 23.5Z" stroke-width="1"></path></svg>