<svg width="560" height="85" viewBox="0 0 560 85" fill="none" xmlns="http://www.w3.org/2000/svg">
<path d="M23.543 17.8711C41.5589 33.0654 57.4773 25.3082 63.1846 19.5303" stroke="#016BB5" stroke-width="10" stroke-linecap="round"/>
<path d="M12.9443 55.1704C32.0198 41.2446 27.5031 24.5361 22.8603 17.9225" stroke="#88898B" stroke-width="10" stroke-linecap="round"/>
<path d="M43.8281 79.3292C38.4649 56.7702 20.8836 53.9746 12.7634 55.3967" stroke="#FDEB02" stroke-width="10" stroke-linecap="round"/>
<path d="M75.1562 56.0659C51.2813 55.6537 44.2302 71.5162 43.689 79.4989" stroke="#E01D2B" stroke-width="10" stroke-linecap="round"/>
<path d="M65.0254 18.8491C55.5442 40.0966 67.9899 52.4561 75.398 55.9799" stroke="#1C6B3C" stroke-width="10" stroke-linecap="round"/>
<ellipse cx="43.3646" cy="44.251" rx="7.06285" ry="6.70021" fill="#FDEB02"/>
<path d="M90.414 80.3889V80.0109L90.756 79.9029C90.996 79.8189 91.158 79.7109 91.242 79.5789C91.326 79.4349 91.368 79.2429 91.368 79.0029V69.8949C91.368 69.6549 91.326 69.4629 91.242 69.3189C91.17 69.1749 91.014 69.0609 90.774 68.9769L90.414 68.8689V68.4909H94.86V68.8689L94.554 68.9589C94.326 69.0429 94.17 69.1569 94.086 69.3009C94.002 69.4329 93.96 69.6189 93.96 69.8589V73.9989H98.442V69.8589C98.442 69.6189 98.4 69.4329 98.316 69.3009C98.232 69.1569 98.07 69.0429 97.83 68.9589L97.542 68.8689V68.4909H101.988V68.8689L101.646 68.9769C101.418 69.0609 101.256 69.1749 101.16 69.3189C101.076 69.4509 101.034 69.6369 101.034 69.8769V79.0029C101.034 79.2429 101.076 79.4349 101.16 79.5789C101.256 79.7109 101.418 79.8189 101.646 79.9029L101.988 80.0109V80.3889H97.542V80.0109L97.83 79.9209C98.07 79.8369 98.232 79.7289 98.316 79.5969C98.4 79.4529 98.442 79.2609 98.442 79.0209V74.5389H93.96V79.0209C93.96 79.2609 94.002 79.4529 94.086 79.5969C94.182 79.7289 94.344 79.8369 94.572 79.9209L94.86 80.0109V80.3889H90.414ZM106.831 71.4789C107.587 71.4789 108.235 71.6349 108.775 71.9469C109.315 72.2589 109.729 72.6909 110.017 73.2429C110.317 73.7829 110.467 74.4069 110.467 75.1149C110.467 75.2709 110.461 75.4209 110.449 75.5649C110.437 75.6969 110.413 75.8229 110.377 75.9429H104.959C104.971 77.1789 105.199 78.0669 105.643 78.6069C106.099 79.1469 106.759 79.4169 107.623 79.4169C108.223 79.4169 108.709 79.3209 109.081 79.1289C109.453 78.9249 109.795 78.6429 110.107 78.2829L110.395 78.5529C110.035 79.2129 109.543 79.7289 108.919 80.1009C108.307 80.4609 107.575 80.6409 106.723 80.6409C105.871 80.6409 105.121 80.4609 104.473 80.1009C103.825 79.7409 103.315 79.2249 102.943 78.5529C102.583 77.8689 102.403 77.0529 102.403 76.1049C102.403 75.1209 102.613 74.2869 103.033 73.6029C103.465 72.9189 104.017 72.3969 104.689 72.0369C105.373 71.6649 106.087 71.4789 106.831 71.4789ZM106.741 72.0009C106.393 72.0009 106.087 72.1029 105.823 72.3069C105.571 72.4989 105.367 72.8469 105.211 73.3509C105.067 73.8429 104.983 74.5389 104.959 75.4389H108.181C108.313 74.2269 108.265 73.3509 108.037 72.8109C107.809 72.2709 107.377 72.0009 106.741 72.0009ZM113.906 80.6409C113.222 80.6409 112.64 80.4489 112.16 80.0649C111.692 79.6689 111.458 79.1049 111.458 78.3729C111.458 77.7969 111.734 77.2689 112.286 76.7889C112.85 76.2969 113.732 75.9369 114.932 75.7089C115.136 75.6609 115.37 75.6189 115.634 75.5829C115.91 75.5349 116.18 75.4869 116.444 75.4389V74.1609C116.444 73.3449 116.342 72.7809 116.138 72.4689C115.934 72.1569 115.61 72.0009 115.166 72.0009H115.112C114.836 72.0009 114.614 72.0909 114.446 72.2709C114.29 72.4389 114.188 72.7209 114.14 73.1169L114.086 73.3509C114.05 73.8309 113.924 74.1849 113.708 74.4129C113.492 74.6289 113.222 74.7369 112.898 74.7369C112.598 74.7369 112.346 74.6469 112.142 74.4669C111.95 74.2749 111.854 74.0289 111.854 73.7289C111.854 73.2369 112.022 72.8229 112.358 72.4869C112.694 72.1509 113.138 71.8989 113.69 71.7309C114.254 71.5629 114.86 71.4789 115.508 71.4789C116.576 71.4789 117.392 71.7369 117.956 72.2529C118.52 72.7689 118.802 73.6089 118.802 74.7729V78.7869C118.802 79.3029 119.048 79.5609 119.54 79.5609H119.954L120.134 79.7589C119.918 80.0349 119.678 80.2449 119.414 80.3889C119.15 80.5449 118.79 80.6229 118.334 80.6229C117.818 80.6229 117.404 80.5029 117.092 80.2629C116.792 80.0109 116.594 79.6809 116.498 79.2729C116.114 79.6809 115.736 80.0109 115.364 80.2629C114.992 80.5149 114.506 80.6409 113.906 80.6409ZM114.95 79.4889C115.19 79.4889 115.418 79.4349 115.634 79.3269C115.85 79.2189 116.12 79.0389 116.444 78.7869V75.9069C116.132 75.9549 115.814 76.0149 115.49 76.0869C114.974 76.2069 114.554 76.4289 114.23 76.7529C113.918 77.0769 113.762 77.5149 113.762 78.0669C113.762 78.5469 113.87 78.9069 114.086 79.1469C114.314 79.3749 114.602 79.4889 114.95 79.4889ZM120.578 80.3889V80.0469L120.848 79.9749C121.244 79.8429 121.442 79.5429 121.442 79.0749C121.442 78.6669 121.442 78.2589 121.442 77.8509C121.454 77.4309 121.46 77.0169 121.46 76.6089V69.7689C121.46 69.5169 121.418 69.3309 121.334 69.2109C121.25 69.0789 121.088 68.9829 120.848 68.9229L120.578 68.8509V68.5089L123.728 67.7529L123.962 67.9149L123.89 70.4529V79.0749C123.902 79.3149 123.95 79.5129 124.034 79.6689C124.13 79.8129 124.292 79.9149 124.52 79.9749L124.772 80.0469V80.3889H120.578ZM128.971 80.6409C128.227 80.6409 127.639 80.4609 127.207 80.1009C126.787 79.7289 126.577 79.1289 126.577 78.3009C126.577 78.0129 126.577 77.7429 126.577 77.4909C126.589 77.2269 126.595 76.9209 126.595 76.5729V72.3069H125.317V71.9109L125.803 71.8389C126.151 71.7789 126.445 71.6709 126.685 71.5149C126.937 71.3589 127.165 71.1429 127.369 70.8669L128.539 69.2469H129.079L129.025 71.7489H131.077V72.3069H129.007V78.4449C129.007 78.8769 129.097 79.2009 129.277 79.4169C129.469 79.6329 129.703 79.7409 129.979 79.7409C130.219 79.7409 130.435 79.6869 130.627 79.5789C130.819 79.4589 131.011 79.3029 131.203 79.1109L131.437 79.3809C131.209 79.7769 130.891 80.0889 130.483 80.3169C130.075 80.5329 129.571 80.6409 128.971 80.6409ZM132.074 80.3889V80.0289L132.308 79.9569C132.74 79.8249 132.956 79.5249 132.956 79.0569V69.7869C132.956 69.5349 132.914 69.3489 132.83 69.2289C132.746 69.0969 132.584 69.0009 132.344 68.9409L132.074 68.8689V68.5269L135.116 67.7529L135.404 67.9149L135.332 70.4529V72.7569C135.752 72.4089 136.208 72.1089 136.7 71.8569C137.204 71.6049 137.744 71.4789 138.32 71.4789C139.112 71.4789 139.73 71.7009 140.174 72.1449C140.63 72.5889 140.858 73.2729 140.858 74.1969V79.0749C140.858 79.3149 140.906 79.5069 141.002 79.6509C141.098 79.7949 141.266 79.9029 141.506 79.9749L141.668 80.0289V80.3889H137.564V80.0289L137.78 79.9569C138.212 79.8369 138.428 79.5369 138.428 79.0569V73.8549C138.428 73.3629 138.344 73.0209 138.176 72.8289C138.008 72.6369 137.714 72.5409 137.294 72.5409C137.006 72.5409 136.7 72.5949 136.376 72.7029C136.064 72.8109 135.734 72.9909 135.386 73.2429V79.0929C135.386 79.3329 135.434 79.5249 135.53 79.6689C135.626 79.8129 135.788 79.9149 136.016 79.9749L136.178 80.0289V80.3889H132.074ZM147.985 84.8889V66.8889H148.723V84.8889H147.985ZM162.47 80.4609L159.356 69.8589C159.272 69.5949 159.176 69.3969 159.068 69.2649C158.96 69.1329 158.78 69.0249 158.528 68.9409L158.312 68.8689V68.4909H162.956V68.8689L162.578 68.9949C162.302 69.0789 162.122 69.1989 162.038 69.3549C161.966 69.5109 161.966 69.7269 162.038 70.0029L164 77.3829L166.142 70.9929L165.818 69.9489C165.734 69.6969 165.65 69.5049 165.566 69.3729C165.482 69.2289 165.344 69.1149 165.152 69.0309L164.756 68.8689V68.4909H169.166V68.8689L168.662 69.0309C168.422 69.1149 168.284 69.2349 168.248 69.3909C168.212 69.5469 168.236 69.7569 168.32 70.0209L170.588 77.4909L172.676 70.1289C172.76 69.8529 172.784 69.6129 172.748 69.4089C172.712 69.2049 172.556 69.0609 172.28 68.9769L171.92 68.8689V68.4909H174.584V68.8689L174.134 69.0129C173.894 69.0969 173.72 69.2229 173.612 69.3909C173.516 69.5469 173.432 69.7569 173.36 70.0209L170.408 80.4609H169.166L166.502 72.0729L163.712 80.4609H162.47ZM177.935 71.4789C178.691 71.4789 179.339 71.6349 179.879 71.9469C180.419 72.2589 180.833 72.6909 181.121 73.2429C181.421 73.7829 181.571 74.4069 181.571 75.1149C181.571 75.2709 181.565 75.4209 181.553 75.5649C181.541 75.6969 181.517 75.8229 181.481 75.9429H176.063C176.075 77.1789 176.303 78.0669 176.747 78.6069C177.203 79.1469 177.863 79.4169 178.727 79.4169C179.327 79.4169 179.813 79.3209 180.185 79.1289C180.557 78.9249 180.899 78.6429 181.211 78.2829L181.499 78.5529C181.139 79.2129 180.647 79.7289 180.023 80.1009C179.411 80.4609 178.679 80.6409 177.827 80.6409C176.975 80.6409 176.225 80.4609 175.577 80.1009C174.929 79.7409 174.419 79.2249 174.047 78.5529C173.687 77.8689 173.507 77.0529 173.507 76.1049C173.507 75.1209 173.717 74.2869 174.137 73.6029C174.569 72.9189 175.121 72.3969 175.793 72.0369C176.477 71.6649 177.191 71.4789 177.935 71.4789ZM177.845 72.0009C177.497 72.0009 177.191 72.1029 176.927 72.3069C176.675 72.4989 176.471 72.8469 176.315 73.3509C176.171 73.8429 176.087 74.5389 176.063 75.4389H179.285C179.417 74.2269 179.369 73.3509 179.141 72.8109C178.913 72.2709 178.481 72.0009 177.845 72.0009ZM185.009 80.6409C184.325 80.6409 183.743 80.4489 183.263 80.0649C182.795 79.6689 182.561 79.1049 182.561 78.3729C182.561 77.7969 182.837 77.2689 183.389 76.7889C183.953 76.2969 184.835 75.9369 186.035 75.7089C186.239 75.6609 186.473 75.6189 186.737 75.5829C187.013 75.5349 187.283 75.4869 187.547 75.4389V74.1609C187.547 73.3449 187.445 72.7809 187.241 72.4689C187.037 72.1569 186.713 72.0009 186.269 72.0009H186.215C185.939 72.0009 185.717 72.0909 185.549 72.2709C185.393 72.4389 185.291 72.7209 185.243 73.1169L185.189 73.3509C185.153 73.8309 185.027 74.1849 184.811 74.4129C184.595 74.6289 184.325 74.7369 184.001 74.7369C183.701 74.7369 183.449 74.6469 183.245 74.4669C183.053 74.2749 182.957 74.0289 182.957 73.7289C182.957 73.2369 183.125 72.8229 183.461 72.4869C183.797 72.1509 184.241 71.8989 184.793 71.7309C185.357 71.5629 185.963 71.4789 186.611 71.4789C187.679 71.4789 188.495 71.7369 189.059 72.2529C189.623 72.7689 189.905 73.6089 189.905 74.7729V78.7869C189.905 79.3029 190.151 79.5609 190.643 79.5609H191.057L191.237 79.7589C191.021 80.0349 190.781 80.2449 190.517 80.3889C190.253 80.5449 189.893 80.6229 189.437 80.6229C188.921 80.6229 188.507 80.5029 188.195 80.2629C187.895 80.0109 187.697 79.6809 187.601 79.2729C187.217 79.6809 186.839 80.0109 186.467 80.2629C186.095 80.5149 185.609 80.6409 185.009 80.6409ZM186.053 79.4889C186.293 79.4889 186.521 79.4349 186.737 79.3269C186.953 79.2189 187.223 79.0389 187.547 78.7869V75.9069C187.235 75.9549 186.917 76.0149 186.593 76.0869C186.077 76.2069 185.657 76.4289 185.333 76.7529C185.021 77.0769 184.865 77.5149 184.865 78.0669C184.865 78.5469 184.973 78.9069 185.189 79.1469C185.417 79.3749 185.705 79.4889 186.053 79.4889ZM191.682 80.3889V80.0469L191.952 79.9749C192.348 79.8429 192.546 79.5429 192.546 79.0749C192.546 78.6669 192.546 78.2589 192.546 77.8509C192.558 77.4309 192.564 77.0169 192.564 76.6089V69.7689C192.564 69.5169 192.522 69.3309 192.438 69.2109C192.354 69.0789 192.192 68.9829 191.952 68.9229L191.682 68.8509V68.5089L194.832 67.7529L195.066 67.9149L194.994 70.4529V79.0749C195.006 79.3149 195.054 79.5129 195.138 79.6689C195.234 79.8129 195.396 79.9149 195.624 79.9749L195.876 80.0469V80.3889H191.682ZM200.075 80.6409C199.331 80.6409 198.743 80.4609 198.311 80.1009C197.891 79.7289 197.681 79.1289 197.681 78.3009C197.681 78.0129 197.681 77.7429 197.681 77.4909C197.693 77.2269 197.699 76.9209 197.699 76.5729V72.3069H196.421V71.9109L196.906 71.8389C197.255 71.7789 197.549 71.6709 197.789 71.5149C198.041 71.3589 198.269 71.1429 198.473 70.8669L199.643 69.2469H200.183L200.129 71.7489H202.181V72.3069H200.111V78.4449C200.111 78.8769 200.201 79.2009 200.381 79.4169C200.573 79.6329 200.807 79.7409 201.083 79.7409C201.323 79.7409 201.539 79.6869 201.731 79.5789C201.923 79.4589 202.115 79.3029 202.307 79.1109L202.541 79.3809C202.313 79.7769 201.995 80.0889 201.587 80.3169C201.179 80.5329 200.675 80.6409 200.075 80.6409ZM203.178 80.3889V80.0289L203.412 79.9569C203.844 79.8249 204.06 79.5249 204.06 79.0569V69.7869C204.06 69.5349 204.018 69.3489 203.934 69.2289C203.85 69.0969 203.688 69.0009 203.448 68.9409L203.178 68.8689V68.5269L206.22 67.7529L206.508 67.9149L206.436 70.4529V72.7569C206.856 72.4089 207.312 72.1089 207.804 71.8569C208.308 71.6049 208.848 71.4789 209.424 71.4789C210.216 71.4789 210.834 71.7009 211.278 72.1449C211.734 72.5889 211.962 73.2729 211.962 74.1969V79.0749C211.962 79.3149 212.01 79.5069 212.106 79.6509C212.202 79.7949 212.37 79.9029 212.61 79.9749L212.772 80.0289V80.3889H208.668V80.0289L208.884 79.9569C209.316 79.8369 209.532 79.5369 209.532 79.0569V73.8549C209.532 73.3629 209.448 73.0209 209.28 72.8289C209.112 72.6369 208.818 72.5409 208.398 72.5409C208.11 72.5409 207.804 72.5949 207.48 72.7029C207.168 72.8109 206.838 72.9909 206.49 73.2429V79.0929C206.49 79.3329 206.538 79.5249 206.634 79.6689C206.73 79.8129 206.892 79.9149 207.12 79.9749L207.282 80.0289V80.3889H203.178ZM223.043 84.8889V66.8889H223.781V84.8889H223.043ZM234.115 80.3889V80.0109L234.475 79.9209C234.715 79.8489 234.871 79.7409 234.943 79.5969C235.015 79.4529 235.051 79.2549 235.051 79.0029C235.063 78.3189 235.069 77.6289 235.069 76.9329C235.069 76.2249 235.069 75.5169 235.069 74.8089V74.0709C235.069 73.3749 235.069 72.6789 235.069 71.9829C235.069 71.2869 235.063 70.5909 235.051 69.8949C235.051 69.6429 235.009 69.4509 234.925 69.3189C234.853 69.1749 234.697 69.0609 234.457 68.9769L234.115 68.8689V68.4909H238.453C240.205 68.4909 241.477 68.8209 242.269 69.4809C243.073 70.1289 243.475 70.9869 243.475 72.0549C243.475 72.7269 243.307 73.3509 242.971 73.9269C242.647 74.4909 242.107 74.9409 241.351 75.2769C240.595 75.6129 239.575 75.7809 238.291 75.7809H237.643C237.643 76.2849 237.643 76.8069 237.643 77.3469C237.643 77.8749 237.649 78.4149 237.661 78.9669C237.661 79.4589 237.883 79.7589 238.327 79.8669L238.867 80.0109V80.3889H234.115ZM237.643 75.2589H238.399C238.999 75.2589 239.485 75.1689 239.857 74.9889C240.241 74.7969 240.523 74.4729 240.703 74.0169C240.895 73.5609 240.991 72.9309 240.991 72.1269C240.991 71.3229 240.889 70.6989 240.685 70.2549C240.493 69.7989 240.199 69.4809 239.803 69.3009C239.407 69.1089 238.915 69.0129 238.327 69.0129H237.661C237.649 69.8409 237.643 70.6809 237.643 71.5329C237.643 72.3729 237.643 73.2189 237.643 74.0709V75.2589ZM244.081 80.3889V80.0469L244.351 79.9569C244.591 79.8969 244.753 79.7949 244.837 79.6509C244.933 79.5069 244.981 79.3149 244.981 79.0749V73.8009C244.969 73.5369 244.921 73.3389 244.837 73.2069C244.753 73.0629 244.591 72.9669 244.351 72.9189L244.081 72.8469V72.5229L247.015 71.4789L247.231 71.6769L247.393 73.2609V73.3869C247.573 73.0509 247.801 72.7389 248.077 72.4509C248.353 72.1629 248.653 71.9289 248.977 71.7489C249.301 71.5689 249.625 71.4789 249.949 71.4789C250.405 71.4789 250.747 71.5989 250.975 71.8389C251.203 72.0789 251.317 72.3849 251.317 72.7569C251.317 73.1649 251.203 73.4769 250.975 73.6929C250.747 73.8969 250.471 73.9989 250.147 73.9989C249.667 73.9989 249.253 73.7829 248.905 73.3509L248.869 73.3149C248.749 73.1709 248.611 73.0929 248.455 73.0809C248.311 73.0569 248.167 73.1289 248.023 73.2969C247.903 73.4169 247.789 73.5609 247.681 73.7289C247.585 73.8849 247.495 74.0709 247.411 74.2869V79.0029C247.411 79.2309 247.459 79.4229 247.555 79.5789C247.651 79.7229 247.813 79.8249 248.041 79.8849L248.581 80.0469V80.3889H244.081ZM256.14 80.6409C255.252 80.6409 254.472 80.4549 253.8 80.0829C253.14 79.7109 252.624 79.1829 252.252 78.4989C251.892 77.8149 251.712 76.9989 251.712 76.0509C251.712 75.1029 251.904 74.2869 252.288 73.6029C252.684 72.9189 253.212 72.3969 253.872 72.0369C254.544 71.6649 255.3 71.4789 256.14 71.4789C256.98 71.4789 257.73 71.6649 258.39 72.0369C259.062 72.3969 259.59 72.9189 259.974 73.6029C260.37 74.2749 260.568 75.0909 260.568 76.0509C260.568 76.9989 260.382 77.8209 260.01 78.5169C259.65 79.2009 259.14 79.7289 258.48 80.1009C257.82 80.4609 257.04 80.6409 256.14 80.6409ZM256.14 80.1369C256.572 80.1369 256.92 80.0229 257.184 79.7949C257.46 79.5549 257.658 79.1409 257.778 78.5529C257.898 77.9649 257.958 77.1429 257.958 76.0869C257.958 75.0189 257.898 74.1909 257.778 73.6029C257.658 73.0029 257.46 72.5889 257.184 72.3609C256.92 72.1209 256.572 72.0009 256.14 72.0009C255.708 72.0009 255.36 72.1209 255.096 72.3609C254.832 72.5889 254.634 73.0029 254.502 73.6029C254.382 74.1909 254.322 75.0189 254.322 76.0869C254.322 77.1429 254.382 77.9649 254.502 78.5529C254.634 79.1409 254.832 79.5549 255.096 79.7949C255.36 80.0229 255.708 80.1369 256.14 80.1369ZM264.51 80.6409C263.934 80.6409 263.412 80.5749 262.944 80.4429C262.488 80.3229 262.05 80.1489 261.63 79.9209V77.7969H262.116L262.656 78.8229C262.884 79.2669 263.142 79.5969 263.43 79.8129C263.73 80.0289 264.108 80.1369 264.564 80.1369C265.128 80.1369 265.578 80.0169 265.914 79.7769C266.25 79.5249 266.418 79.1889 266.418 78.7689C266.418 78.3849 266.292 78.0729 266.04 77.8329C265.788 77.5929 265.338 77.3709 264.69 77.1669L263.898 76.9149C263.19 76.6989 262.626 76.3749 262.206 75.9429C261.798 75.4989 261.594 74.9469 261.594 74.2869C261.594 73.7709 261.732 73.3029 262.008 72.8829C262.284 72.4509 262.686 72.1089 263.214 71.8569C263.742 71.6049 264.384 71.4789 265.14 71.4789C265.632 71.4789 266.082 71.5389 266.49 71.6589C266.91 71.7669 267.318 71.9229 267.714 72.1269L267.606 74.0529H267.138L266.58 73.0269C266.388 72.6429 266.19 72.3789 265.986 72.2349C265.794 72.0789 265.494 72.0009 265.086 72.0009C264.654 72.0009 264.27 72.1149 263.934 72.3429C263.61 72.5589 263.448 72.8649 263.448 73.2609C263.448 73.6329 263.586 73.9389 263.862 74.1789C264.138 74.4069 264.582 74.6229 265.194 74.8269L265.968 75.0609C266.844 75.3369 267.468 75.7029 267.84 76.1589C268.212 76.6149 268.398 77.1609 268.398 77.7969C268.398 78.6489 268.056 79.3389 267.372 79.8669C266.7 80.3829 265.746 80.6409 264.51 80.6409ZM269.042 84.5469V84.2049L269.276 84.1329C269.516 84.0729 269.684 83.9709 269.78 83.8269C269.876 83.6949 269.924 83.5029 269.924 83.2509C269.924 82.7589 269.924 82.2909 269.924 81.8469C269.936 81.4149 269.942 80.9949 269.942 80.5869V75.6369C269.942 75.2649 269.942 74.9469 269.942 74.6829C269.942 74.4069 269.936 74.1009 269.924 73.7649C269.924 73.5129 269.882 73.3209 269.798 73.1889C269.714 73.0449 269.552 72.9489 269.312 72.9009L269.042 72.8469V72.5229L271.94 71.4789L272.156 71.6589L272.318 72.3249C273.146 71.7609 274.082 71.4789 275.126 71.4789C276.146 71.4789 276.962 71.8629 277.574 72.6309C278.198 73.3989 278.51 74.5329 278.51 76.0329C278.51 77.4849 278.168 78.6189 277.484 79.4349C276.812 80.2389 275.894 80.6409 274.73 80.6409C274.262 80.6409 273.818 80.5989 273.398 80.5149C272.99 80.4309 272.624 80.3049 272.3 80.1369V80.6769C272.3 81.0369 272.3 81.4269 272.3 81.8469C272.312 82.2669 272.318 82.7229 272.318 83.2149C272.318 83.6949 272.528 83.9949 272.948 84.1149L273.29 84.2049V84.5469H269.042ZM273.884 79.9209C274.52 79.9209 275.018 79.6389 275.378 79.0749C275.75 78.4989 275.936 77.5089 275.936 76.1049C275.936 74.7129 275.762 73.7409 275.414 73.1889C275.066 72.6249 274.574 72.3429 273.938 72.3429C273.71 72.3429 273.464 72.3789 273.2 72.4509C272.936 72.5229 272.654 72.6429 272.354 72.8109V79.6149C272.834 79.8189 273.344 79.9209 273.884 79.9209ZM283.931 71.4789C284.687 71.4789 285.335 71.6349 285.875 71.9469C286.415 72.2589 286.829 72.6909 287.117 73.2429C287.417 73.7829 287.567 74.4069 287.567 75.1149C287.567 75.2709 287.561 75.4209 287.549 75.5649C287.537 75.6969 287.513 75.8229 287.477 75.9429H282.059C282.071 77.1789 282.299 78.0669 282.743 78.6069C283.199 79.1469 283.859 79.4169 284.723 79.4169C285.323 79.4169 285.809 79.3209 286.181 79.1289C286.553 78.9249 286.895 78.6429 287.207 78.2829L287.495 78.5529C287.135 79.2129 286.643 79.7289 286.019 80.1009C285.407 80.4609 284.675 80.6409 283.823 80.6409C282.971 80.6409 282.221 80.4609 281.573 80.1009C280.925 79.7409 280.415 79.2249 280.043 78.5529C279.683 77.8689 279.503 77.0529 279.503 76.1049C279.503 75.1209 279.713 74.2869 280.133 73.6029C280.565 72.9189 281.117 72.3969 281.789 72.0369C282.473 71.6649 283.187 71.4789 283.931 71.4789ZM283.841 72.0009C283.493 72.0009 283.187 72.1029 282.923 72.3069C282.671 72.4989 282.467 72.8469 282.311 73.3509C282.167 73.8429 282.083 74.5389 282.059 75.4389H285.281C285.413 74.2269 285.365 73.3509 285.137 72.8109C284.909 72.2709 284.477 72.0009 283.841 72.0009ZM288.483 80.3889V80.0469L288.753 79.9569C288.993 79.8969 289.155 79.7949 289.239 79.6509C289.335 79.5069 289.383 79.3149 289.383 79.0749V73.8009C289.371 73.5369 289.323 73.3389 289.239 73.2069C289.155 73.0629 288.993 72.9669 288.753 72.9189L288.483 72.8469V72.5229L291.417 71.4789L291.633 71.6769L291.795 73.2609V73.3869C291.975 73.0509 292.203 72.7389 292.479 72.4509C292.755 72.1629 293.055 71.9289 293.379 71.7489C293.703 71.5689 294.027 71.4789 294.351 71.4789C294.807 71.4789 295.149 71.5989 295.377 71.8389C295.605 72.0789 295.719 72.3849 295.719 72.7569C295.719 73.1649 295.605 73.4769 295.377 73.6929C295.149 73.8969 294.873 73.9989 294.549 73.9989C294.069 73.9989 293.655 73.7829 293.307 73.3509L293.271 73.3149C293.151 73.1709 293.013 73.0929 292.857 73.0809C292.713 73.0569 292.569 73.1289 292.425 73.2969C292.305 73.4169 292.191 73.5609 292.083 73.7289C291.987 73.8849 291.897 74.0709 291.813 74.2869V79.0029C291.813 79.2309 291.861 79.4229 291.957 79.5789C292.053 79.7229 292.215 79.8249 292.443 79.8849L292.983 80.0469V80.3889H288.483ZM298.394 70.4889C297.998 70.4889 297.662 70.3629 297.386 70.1109C297.11 69.8589 296.972 69.5409 296.972 69.1569C296.972 68.7609 297.11 68.4429 297.386 68.2029C297.662 67.9509 297.998 67.8249 298.394 67.8249C298.79 67.8249 299.126 67.9509 299.402 68.2029C299.678 68.4429 299.816 68.7609 299.816 69.1569C299.816 69.5409 299.678 69.8589 299.402 70.1109C299.126 70.3629 298.79 70.4889 298.394 70.4889ZM296.324 80.3889V80.0469L296.594 79.9749C296.834 79.9029 296.996 79.7949 297.08 79.6509C297.164 79.5069 297.212 79.3149 297.224 79.0749V75.7629C297.224 75.3909 297.224 75.0489 297.224 74.7369C297.224 74.4129 297.218 74.0829 297.206 73.7469C297.206 73.5069 297.158 73.3209 297.062 73.1889C296.978 73.0449 296.816 72.9489 296.576 72.9009L296.324 72.8469V72.5229L299.474 71.4789L299.69 71.6769L299.636 74.2329V79.0929C299.636 79.3329 299.678 79.5249 299.762 79.6689C299.858 79.8129 300.02 79.9209 300.248 79.9929L300.446 80.0469V80.3889H296.324ZM304.629 80.6409C303.885 80.6409 303.297 80.4609 302.865 80.1009C302.445 79.7289 302.235 79.1289 302.235 78.3009C302.235 78.0129 302.235 77.7429 302.235 77.4909C302.247 77.2269 302.253 76.9209 302.253 76.5729V72.3069H300.975V71.9109L301.461 71.8389C301.809 71.7789 302.103 71.6709 302.343 71.5149C302.595 71.3589 302.823 71.1429 303.027 70.8669L304.197 69.2469H304.737L304.683 71.7489H306.735V72.3069H304.665V78.4449C304.665 78.8769 304.755 79.2009 304.935 79.4169C305.127 79.6329 305.361 79.7409 305.637 79.7409C305.877 79.7409 306.093 79.6869 306.285 79.5789C306.477 79.4589 306.669 79.3029 306.861 79.1109L307.095 79.3809C306.867 79.7769 306.549 80.0889 306.141 80.3169C305.733 80.5329 305.229 80.6409 304.629 80.6409ZM309.316 84.7269C308.836 84.7269 308.458 84.6129 308.182 84.3849C307.906 84.1569 307.768 83.8569 307.768 83.4849C307.768 83.1489 307.882 82.8789 308.11 82.6749C308.35 82.4829 308.614 82.3869 308.902 82.3869C309.202 82.3869 309.448 82.4409 309.64 82.5489C309.832 82.6569 310 82.8129 310.144 83.0169L310.252 83.1609C310.528 83.4969 310.786 83.4909 311.026 83.1429C311.182 82.9389 311.332 82.6869 311.476 82.3869C311.632 82.0869 311.8 81.6909 311.98 81.1989L308.56 73.0269C308.476 72.7989 308.38 72.6249 308.272 72.5049C308.164 72.3729 308.002 72.2649 307.786 72.1809L307.48 72.0729V71.7489H311.926V72.0729L311.548 72.1809C311.284 72.2649 311.14 72.3969 311.116 72.5769C311.104 72.7449 311.146 72.9669 311.242 73.2429L313.078 78.0309L314.842 73.2069C314.938 72.9429 314.974 72.7209 314.95 72.5409C314.926 72.3609 314.776 72.2409 314.5 72.1809L314.104 72.0729V71.7489H316.786V72.0729L316.39 72.1989C316.126 72.2709 315.934 72.3789 315.814 72.5229C315.706 72.6549 315.604 72.8529 315.508 73.1169L312.628 80.8569C312.148 82.1769 311.656 83.1489 311.152 83.7729C310.66 84.4089 310.048 84.7269 309.316 84.7269Z" fill="black"/>
<line x1="90" y1="54.2222" x2="312" y2="54.2222" stroke="#FF0000" stroke-width="3"/>
<path d="M111.7 24.6386C111.944 23.987 112.066 23.3285 112.066 22.6607C112.066 21.9929 111.957 21.3506 111.741 20.734C111.523 20.1174 111.19 19.5707 110.741 19.0913C110.292 18.612 109.741 18.2514 109.088 18.0117C107.918 17.6697 106.796 17.5672 105.722 17.7045C104.648 17.8418 103.723 18.1583 102.947 18.6539C102.17 19.1495 101.594 19.7591 101.213 20.4781C100.832 21.1971 100.764 21.951 101.008 22.7375C101.254 23.5263 101.851 24.3035 102.803 25.0737C103.755 25.8439 105.184 26.5047 107.088 27.0516C108.121 27.3587 109.061 27.6681 109.904 27.9753C110.747 28.2824 111.495 28.6268 112.148 29.0015C113.237 29.6181 114.107 30.3882 114.76 31.312C115.413 32.2381 115.834 33.2736 116.025 34.4208C116.215 35.5679 116.182 36.7757 115.923 38.0415C115.664 39.3073 115.169 40.5753 114.433 41.8411C112.965 44.1703 111.366 45.9085 109.637 47.0557C107.911 48.2028 105.984 49.05 103.862 49.5991C102.257 50.011 100.597 50.0784 98.8835 49.8061C97.1697 49.5315 95.6242 48.9405 94.2506 48.033C92.8771 47.1255 91.7826 45.8853 90.9655 44.31C90.1502 42.7347 89.8508 40.8336 90.069 38.6091L97.7003 37.2223C97.0736 37.839 96.7076 38.5929 96.5985 39.4817C96.4894 40.3706 96.5911 41.2363 96.9035 42.0763C97.216 42.9163 97.7133 43.626 98.3936 44.2077C99.0739 44.7895 99.9039 45.0803 100.882 45.0803C101.725 45.1501 102.596 45.071 103.494 44.8499C104.391 44.6265 105.195 44.2589 105.901 43.7446C106.609 43.2327 107.186 42.5648 107.635 41.7411C108.084 40.9197 108.295 39.9612 108.267 38.8652C108.212 37.7693 107.813 36.913 107.064 36.2964C106.315 35.6797 105.404 35.1678 104.33 34.7559C103.256 34.3464 102.119 33.9508 100.923 33.5761C99.7247 33.1992 98.6653 32.7011 97.7391 32.0868C96.8407 31.5726 96.1068 30.9909 95.5355 30.3394C94.9643 29.6879 94.5224 28.9875 94.21 28.2336C93.8976 27.4797 93.6997 26.7188 93.6184 25.9486C93.5371 25.1784 93.5371 24.3989 93.6184 23.6124C93.7811 21.9347 94.4208 20.3153 95.5355 18.7587C96.6521 17.202 98.1884 15.9083 100.146 14.8798C101.316 14.2282 102.642 13.7255 104.125 13.3648C105.607 13.0065 107.288 12.9111 109.164 13.0833C111.314 13.2205 113.137 13.8534 114.632 14.9843C116.128 16.1152 117.232 17.7068 117.938 19.7614L111.695 24.6408L111.7 24.6386ZM136.227 48.6777C135.084 48.6777 134.071 48.6683 133.188 48.652C132.304 48.6357 131.263 48.6078 130.065 48.5752C130.502 45.7666 131.03 42.858 131.657 39.8423C132.284 36.829 132.84 33.9693 133.33 31.2631C132.568 30.3044 131.711 29.8602 130.759 29.9277C129.806 29.9951 128.901 30.4232 128.045 31.212C127.189 32.0008 126.446 33.0876 125.821 34.4744C125.194 35.8612 124.841 37.4108 124.76 39.1234C124.706 39.4654 124.686 39.8169 124.699 40.1775C124.712 40.5359 124.747 40.8871 124.8 41.2292C124.965 42.36 125.277 43.1372 125.739 43.5653C126.202 43.9935 126.704 44.1727 127.25 44.1053C127.793 44.0355 128.339 43.7796 128.882 43.3352C129.426 42.8907 129.862 42.3415 130.189 41.6923C130.161 43.0279 129.882 44.261 129.352 45.3896C128.821 46.5181 128.128 47.4024 127.27 48.0353C126.412 48.6682 125.447 48.994 124.373 49.0126C123.299 49.0289 122.203 48.6265 121.088 47.8051C120.192 47.0861 119.496 46.1692 119.006 45.0569C118.517 43.9447 118.197 42.7371 118.047 41.4364C117.897 40.1357 117.905 38.7999 118.067 37.4293C118.23 36.0588 118.529 34.7489 118.964 33.4993C119.398 32.2498 119.944 31.1026 120.596 30.0579C121.249 29.0131 121.985 28.1824 122.8 27.5658C123.453 26.9492 124.275 26.4372 125.268 26.0254C126.261 25.6158 127.294 25.3483 128.37 25.2296C129.444 25.1086 130.492 25.1784 131.513 25.4343C132.533 25.6926 133.41 26.1977 134.145 26.9516L134.635 24.6386L140.716 24.5874L136.227 48.6777ZM140.797 48.5241L144.224 29.0551H142.021L142.877 24.5338H144.958L146.957 14.4678L153.078 14.6214L151.077 24.5338L156.954 24.4827C156.492 25.4065 156.063 26.1766 155.668 26.7932C155.274 27.4098 154.832 27.8893 154.342 28.2314C153.852 28.5734 153.294 28.813 152.669 28.9503C152.042 29.0876 151.296 29.1573 150.425 29.1573L146.792 48.6752L140.793 48.5218L140.797 48.5241ZM163.61 24.6386C162.82 26.2488 162.244 27.8242 161.876 29.3646C161.51 30.905 161.317 32.4289 161.304 33.9368C161.291 35.4446 161.441 36.9594 161.754 38.4835C162.066 40.0076 162.523 41.5736 163.12 43.1838C163.909 42.3624 164.719 41.3945 165.547 40.2823C166.377 39.17 167.154 37.9879 167.873 36.7383C168.594 35.4888 169.226 34.2394 169.771 32.9899C170.315 31.7403 170.709 30.5838 170.955 29.5227C171.173 28.5292 171.158 27.5798 170.914 26.6723C170.668 25.7648 170.056 25.1225 169.078 24.7456L176.791 24.6433C177.443 25.5345 177.791 26.6117 177.832 27.8798C177.872 29.1457 177.736 30.4558 177.423 31.8101C177.111 33.162 176.669 34.4976 176.098 35.8169C175.526 37.1362 174.94 38.274 174.343 39.2327C172.955 41.4921 171.615 43.3677 170.324 44.8569C169.032 46.3461 167.705 47.5887 166.346 48.58H161.776C160.715 46.9023 159.824 45.0522 159.103 43.0325C158.382 41.0128 157.871 38.9489 157.572 36.8431C157.272 34.7373 157.204 32.6407 157.367 30.5512C157.531 28.4617 157.938 26.4932 158.592 24.6433H163.612L163.61 24.6386ZM196.747 48.6777C195.605 48.6777 194.592 48.6683 193.708 48.652C192.825 48.6357 191.784 48.6078 190.586 48.5752C191.022 45.7666 191.551 42.858 192.177 39.8423C192.804 36.829 193.361 33.9693 193.851 31.2631C193.089 30.3044 192.231 29.8602 191.279 29.9277C190.327 29.9951 189.421 30.4232 188.565 31.212C187.709 32.0008 186.966 33.0876 186.341 34.4744C185.714 35.8612 185.361 37.4108 185.28 39.1234C185.226 39.4654 185.206 39.8169 185.219 40.1775C185.232 40.5359 185.267 40.8871 185.321 41.2292C185.485 42.36 185.798 43.1372 186.26 43.5653C186.722 43.9935 187.225 44.1727 187.77 44.1053C188.314 44.0355 188.859 43.7796 189.403 43.3352C189.946 42.8907 190.382 42.3415 190.71 41.6923C190.682 43.0279 190.403 44.261 189.872 45.3896C189.342 46.5181 188.648 47.4024 187.791 48.0353C186.933 48.6682 185.968 48.994 184.894 49.0126C183.82 49.0289 182.723 48.6265 181.609 47.8051C180.712 47.0861 180.017 46.1692 179.527 45.0569C179.037 43.9447 178.717 42.7371 178.568 41.4364C178.418 40.1357 178.425 38.7999 178.588 37.4293C178.75 36.0588 179.05 34.7489 179.484 33.4993C179.919 32.2498 180.464 31.1026 181.117 30.0579C181.769 29.0131 182.505 28.1824 183.32 27.5658C183.973 26.9492 184.796 26.4372 185.788 26.0254C186.781 25.6158 187.815 25.3483 188.891 25.2296C189.965 25.1086 191.013 25.1784 192.033 25.4343C193.054 25.6926 193.93 26.1977 194.666 26.9516L195.156 24.6386L201.236 24.5874L196.747 48.6777ZM221.683 14.3655C220.322 16.6598 219.398 19.0401 218.908 21.5066C218.418 23.9708 218.194 26.386 218.235 28.7501C218.275 31.1119 218.499 33.3482 218.908 35.454C219.314 37.5598 219.751 39.4003 220.213 40.9756C221.056 39.8121 221.886 38.5858 222.701 37.3037C223.518 36.0193 224.293 34.7279 225.027 33.4248C225.763 32.1241 226.436 30.8653 227.047 29.6507C227.659 28.436 228.197 27.3307 228.66 26.3371C229.395 24.8991 229.98 23.5542 230.414 22.3046C230.85 21.0551 231.102 19.9244 231.17 18.9145C231.238 17.9047 231.081 17.0228 230.701 16.2689C230.32 15.5149 229.68 14.8821 228.783 14.3678H236.415C237.176 15.0193 237.707 15.85 238.006 16.8599C238.306 17.8698 238.428 18.9819 238.373 20.1989C238.317 21.4135 238.129 22.6816 237.801 24.0009C237.476 25.3203 237.073 26.6211 236.598 27.9055C236.123 29.1899 235.612 30.4139 235.067 31.5774C234.524 32.7408 234.006 33.7506 233.516 34.6069C232.836 35.8401 232.074 37.1224 231.231 38.4603C230.388 39.7959 229.53 41.0897 228.66 42.3392C227.789 43.5887 226.925 44.7615 226.068 45.8575C225.212 46.9534 224.415 47.8609 223.681 48.58L218.906 48.5286C218.089 47.0557 217.383 45.371 216.784 43.4699C216.185 41.5689 215.695 39.5748 215.316 37.4852C214.935 35.3957 214.661 33.2644 214.499 31.0911C214.336 28.9178 214.267 26.8119 214.295 24.7735C214.323 22.7352 214.458 20.8179 214.704 19.0216C214.948 17.2229 215.288 15.6731 215.724 14.3724H221.683V14.3655ZM254.371 48.6777C253.229 48.6777 252.215 48.6683 251.332 48.652C250.448 48.6357 249.407 48.6078 248.209 48.5752C248.646 45.7666 249.174 42.858 249.801 39.8423C250.428 36.829 250.984 33.9693 251.474 31.2631C250.713 30.3044 249.855 29.8602 248.903 29.9277C247.951 29.9951 247.045 30.4232 246.189 31.212C245.333 32.0008 244.59 33.0876 243.965 34.4744C243.338 35.8612 242.985 37.4108 242.904 39.1234C242.85 39.4654 242.83 39.8169 242.843 40.1775C242.856 40.5359 242.891 40.8871 242.944 41.2292C243.109 42.36 243.421 43.1372 243.883 43.5653C244.346 43.9935 244.848 44.1727 245.394 44.1053C245.937 44.0355 246.483 43.7796 247.026 43.3352C247.57 42.8907 248.006 42.3415 248.333 41.6923C248.306 43.0279 248.026 44.261 247.496 45.3896C246.965 46.5181 246.272 47.4024 245.414 48.0353C244.556 48.6682 243.591 48.994 242.517 49.0126C241.443 49.0289 240.347 48.6265 239.232 47.8051C238.335 47.0861 237.64 46.1692 237.151 45.0569C236.661 43.9447 236.341 42.7371 236.191 41.4364C236.041 40.1357 236.049 38.7999 236.211 37.4293C236.374 36.0588 236.674 34.7489 237.108 33.4993C237.543 32.2498 238.088 31.1026 238.74 30.0579C239.393 29.0131 240.129 28.1824 240.944 27.5658C241.597 26.9492 242.419 26.4372 243.412 26.0254C244.405 25.6158 245.438 25.3483 246.514 25.2296C247.588 25.1086 248.636 25.1784 249.657 25.4343C250.677 25.6926 251.554 26.1977 252.29 26.9516L252.779 24.6386L258.86 24.5874L254.371 48.6777ZM273.795 32.6524C273.986 32.208 274.108 31.7285 274.163 31.2143C274.219 30.7024 274.183 30.2137 274.061 29.7507C273.939 29.2899 273.742 28.8945 273.47 28.5711C273.198 28.2453 272.843 28.0313 272.409 27.9289C271.429 27.6543 270.518 27.7053 269.675 28.0823C268.832 28.4593 268.247 28.9644 267.92 29.5973C267.595 30.2302 267.635 30.9166 268.042 31.6519C268.451 32.3895 269.416 32.9781 270.939 33.4225C271.566 33.6296 272.205 33.8345 272.858 34.0392C273.511 34.244 274.163 34.4836 274.816 34.7582C275.631 35.1003 276.265 35.6145 276.712 36.2986C277.162 36.9827 277.441 37.7552 277.55 38.6091C277.659 39.4654 277.585 40.373 277.324 41.3316C277.066 42.2903 276.639 43.2326 276.04 44.1564C274.816 45.9015 273.509 47.1861 272.122 48.0098C270.736 48.8312 269.225 49.4314 267.593 49.8084C266.286 50.1155 265.001 50.1853 263.737 50.0131C262.472 49.8409 261.355 49.4314 260.39 48.7799C259.425 48.1284 258.69 47.2303 258.187 46.0831C257.684 44.936 257.54 43.5398 257.758 41.897L264.45 40.7149C264.069 41.1268 263.818 41.6154 263.696 42.1785C263.574 42.744 263.579 43.2839 263.716 43.7958C263.853 44.31 264.11 44.7637 264.491 45.1569C264.872 45.5501 265.375 45.7992 266.001 45.9015C266.463 46.0039 266.966 46.0133 267.512 45.9272C268.055 45.8411 268.565 45.6527 269.042 45.3619C269.517 45.071 269.933 44.6777 270.286 44.1798C270.64 43.6842 270.845 43.0768 270.898 42.3578C270.954 42.0158 270.919 41.69 270.797 41.3805C270.675 41.0733 270.517 40.8152 270.327 40.6104C270.137 40.4056 269.926 40.2332 269.695 40.0959C269.464 39.9587 269.281 39.8564 269.144 39.7889C268.029 39.3445 267.055 39.0001 266.227 38.7628C265.397 38.5231 264.546 38.1113 263.676 37.5296C262.452 36.6733 261.622 35.6797 261.187 34.5512C260.753 33.4203 260.657 32.2661 260.901 31.0841C261.146 29.9043 261.723 28.7734 262.635 27.6937C263.546 26.6141 264.764 25.7159 266.288 24.9969C266.75 24.7572 267.206 24.5338 267.656 24.3291C268.105 24.1243 268.58 23.9615 269.083 23.8405C269.586 23.7195 270.137 23.6427 270.736 23.6101C271.335 23.5752 272 23.5752 272.736 23.6101C274.422 23.7125 275.838 24.1755 276.981 24.9969C278.123 25.8183 278.925 26.984 279.387 28.4895L273.797 32.6499L273.795 32.6524ZM279.02 48.5241L282.447 29.0551H280.244L281.099 24.5338H283.181L285.179 14.4678L291.3 14.6214L289.3 24.5338L295.177 24.4827C294.715 25.4065 294.286 26.1766 293.89 26.7932C293.497 27.4098 293.055 27.8893 292.565 28.2314C292.075 28.5734 291.517 28.813 290.892 28.9503C290.265 29.0876 289.518 29.1573 288.648 29.1573L285.015 48.6752L279.016 48.5218L279.02 48.5241ZM308.933 24.6386H315.138L310.811 48.5241L304.935 48.6263L305.302 46.9325C304.622 47.3095 304.018 47.6422 303.487 47.933C302.956 48.2239 302.418 48.4473 301.875 48.6009C301.331 48.7544 300.745 48.8498 300.121 48.8824C299.494 48.9173 298.76 48.8661 297.917 48.7288C297.046 48.5566 296.318 48.2495 295.734 47.8051C295.149 47.3606 294.672 46.8114 294.306 46.1622C293.938 45.5107 293.674 44.7753 293.511 43.9539C293.347 43.1325 293.253 42.2577 293.225 41.3339C293.225 39.8261 293.321 38.3556 293.511 36.9176C293.702 35.4796 293.961 34.0672 294.286 32.6804C294.612 31.2936 294.979 29.9322 295.388 28.5965C295.797 27.2609 296.203 25.9416 296.612 24.6408H302.938C302.638 25.5995 302.352 26.4814 302.08 27.2865C301.808 28.0916 301.529 28.9479 301.245 29.8554C300.958 30.7629 300.679 31.7822 300.407 32.9131C300.135 34.0416 299.877 35.4119 299.633 37.0221C299.307 39.1466 299.279 40.7965 299.551 41.9786C299.823 43.1606 300.612 43.7841 301.917 43.8539C303.088 43.7167 304.027 43.1094 304.733 42.0297C305.441 40.9524 306.053 39.2304 306.569 36.8663L308.935 24.6408L308.933 24.6386Z" fill="#10743A"/>
<path d="M315.679 21.547V15.5973H313.995V14.3873H318.51V15.5973H316.833V21.547H315.681H315.679ZM319.517 21.547V14.3848H321.242L322.263 19.2689L323.27 14.3848H325V21.547H323.936L323.932 15.9091L322.81 21.547H321.702L320.586 15.9091L320.582 21.547H319.517Z" fill="#10743A"/>
</svg>
