<svg width="235" height="38" viewBox="0 0 235 38" fill="none" xmlns="http://www.w3.org/2000/svg">
<g id="Group 240">
<path id="Vector" d="M21.7004 11.6386C21.9445 10.987 22.0665 10.3285 22.0665 9.66072C22.0665 8.99291 21.9574 8.35063 21.7411 7.734C21.523 7.11738 21.1902 6.57066 20.741 6.09133C20.2917 5.61199 19.7408 5.25141 19.0883 5.01174C17.918 4.66969 16.7959 4.56723 15.7218 4.70452C14.6477 4.8418 13.7233 5.15828 12.9469 5.6539C12.1704 6.14953 11.5937 6.75913 11.2128 7.47814C10.832 8.19714 10.7636 8.95104 11.0076 9.73753C11.2535 10.5263 11.8506 11.3035 12.8027 12.0737C13.7548 12.8439 15.1838 13.5047 17.0879 14.0516C18.1213 14.3587 19.0606 14.6681 19.9036 14.9753C20.7466 15.2824 21.4952 15.6268 22.1478 16.0015C23.2367 16.6181 24.1074 17.3882 24.76 18.312C25.4126 19.2381 25.8341 20.2736 26.0245 21.4208C26.2149 22.5679 26.1816 23.7757 25.9228 25.0415C25.664 26.3073 25.1686 27.5753 24.4328 28.8411C22.965 31.1703 21.3658 32.9085 19.6373 34.0557C17.9106 35.2028 15.9843 36.05 13.862 36.5991C12.2573 37.011 10.5972 37.0784 8.88346 36.8061C7.16973 36.5315 5.62421 35.9405 4.25064 35.033C2.87706 34.1255 1.78264 32.8853 0.965516 31.31C0.150245 29.7347 -0.14917 27.8336 0.068975 25.6091L7.70032 24.2223C7.07361 24.839 6.70758 25.5929 6.59851 26.4817C6.48944 27.3706 6.5911 28.2363 6.90352 29.0763C7.21595 29.9163 7.71326 30.626 8.39358 31.2077C9.07389 31.7895 9.90395 32.0803 10.8819 32.0803C11.7249 32.1501 12.5956 32.071 13.4941 31.8499C14.3907 31.6265 15.1949 31.2589 15.9011 30.7446C16.6091 30.2327 17.186 29.5648 17.6352 28.7411C18.0844 27.9197 18.2952 26.9612 18.2674 25.8652C18.212 24.7693 17.8126 23.913 17.0639 23.2964C16.3152 22.6797 15.4038 22.1678 14.3297 21.7559C13.2556 21.3464 12.1187 20.9508 10.9226 20.5761C9.72466 20.1992 8.66533 19.7011 7.73913 19.0868C6.84067 18.5726 6.10676 17.9909 5.53551 17.3394C4.96427 16.6879 4.52245 15.9875 4.21002 15.2336C3.89759 14.4797 3.69974 13.7188 3.6184 12.9486C3.53706 12.1784 3.53706 11.3989 3.6184 10.6124C3.78109 8.9347 4.42075 7.31534 5.53551 5.75866C6.65212 4.20198 8.18837 2.90825 10.1461 1.87977C11.3163 1.22825 12.6419 0.725467 14.1245 0.364801C15.6072 0.00646172 17.2877 -0.0889312 19.1641 0.0832577C21.3141 0.220543 23.1368 0.853436 24.6324 1.9843C26.128 3.11516 27.2317 4.70681 27.9379 6.76144L21.6949 11.6408L21.7004 11.6386ZM46.227 35.6777C45.0845 35.6777 44.0714 35.6683 43.1877 35.652C42.3041 35.6357 41.2632 35.6078 40.0653 35.5752C40.5016 32.7666 41.0303 29.858 41.6571 26.8423C42.2838 23.829 42.8402 20.9693 43.3301 18.2631C42.5684 17.3044 41.7106 16.8602 40.7585 16.9277C39.8064 16.9951 38.9006 17.4232 38.0447 18.212C37.1888 19.0008 36.4455 20.0876 35.8207 21.4744C35.194 22.8612 34.8409 24.4108 34.7596 26.1234C34.706 26.4654 34.6856 26.8169 34.6986 27.1775C34.7115 27.5359 34.7466 27.8871 34.8002 28.2292C34.9647 29.36 35.2772 30.1372 35.7394 30.5653C36.2015 30.9935 36.7044 31.1727 37.2497 31.1053C37.7932 31.0355 38.3386 30.7796 38.8821 30.3352C39.4256 29.8907 39.862 29.3415 40.1892 28.6923C40.1615 30.0279 39.8823 31.261 39.3517 32.3896C38.8211 33.5181 38.1279 34.4024 37.2701 35.0353C36.4123 35.6682 35.4472 35.994 34.3731 36.0126C33.2991 36.0289 32.2029 35.6265 31.0881 34.8051C30.1915 34.0861 29.4963 33.1692 29.0064 32.0569C28.5165 30.9447 28.1967 29.7371 28.047 28.4364C27.8972 27.1357 27.9046 25.7999 28.0673 24.4293C28.23 23.0588 28.5295 21.7489 28.9639 20.4993C29.3984 19.2498 29.9437 18.1026 30.5963 17.0579C31.2489 16.0131 31.9847 15.1824 32.8 14.5658C33.4525 13.9492 34.2752 13.4372 35.268 13.0254C36.2607 12.6158 37.2941 12.3483 38.37 12.2296C39.4441 12.1086 40.4923 12.1784 41.5128 12.4343C42.5333 12.6926 43.4096 13.1977 44.1454 13.9516L44.6353 11.6386L50.7156 11.5874L46.227 35.6777ZM50.797 35.5241L54.2244 16.0551H52.0208L52.8767 11.5338H54.9583L56.9567 1.4678L63.0777 1.62141L61.0775 11.5338L66.9545 11.4827C66.4923 12.4065 66.0634 13.1766 65.6678 13.7932C65.274 14.4098 64.8322 14.8893 64.3423 15.2314C63.8524 15.5734 63.294 15.813 62.6692 15.9503C62.0425 16.0876 61.2957 16.1573 60.4249 16.1573L56.7922 35.6752L50.7933 35.5218L50.797 35.5241ZM73.6097 11.6386C72.8204 13.2488 72.2436 14.8242 71.8757 16.3646C71.5097 17.905 71.3173 19.4289 71.3044 20.9368C71.2914 22.4446 71.4412 23.9594 71.7537 25.4835C72.0661 27.0076 72.5227 28.5736 73.1199 30.1838C73.9092 29.3624 74.719 28.3945 75.5472 27.2823C76.3772 26.17 77.1537 24.9879 77.8728 23.7383C78.5938 22.4888 79.2261 21.2394 79.7714 19.9899C80.3149 18.7403 80.7087 17.5838 80.9546 16.5227C81.1727 15.5292 81.1579 14.5798 80.9139 13.6723C80.668 12.7648 80.0561 12.1225 79.0782 11.7456L86.7908 11.6433C87.4434 12.5345 87.7911 13.6117 87.8317 14.8798C87.8724 16.1457 87.7356 17.4558 87.4232 18.8101C87.1107 20.162 86.6688 21.4976 86.0976 22.8169C85.5263 24.1362 84.9404 25.274 84.3432 26.2327C82.9549 28.4921 81.6145 30.3677 80.3241 31.8569C79.0319 33.3461 77.7045 34.5887 76.3458 35.58H71.7759C70.7147 33.9023 69.8237 32.0522 69.1027 30.0325C68.3817 28.0128 67.8714 25.9489 67.5719 23.8431C67.2724 21.7373 67.204 19.6407 67.3667 17.5512C67.5313 15.4617 67.9379 13.4932 68.5924 11.6433H73.6115L73.6097 11.6386ZM106.747 35.6777C105.605 35.6777 104.592 35.6683 103.708 35.652C102.825 35.6357 101.784 35.6078 100.586 35.5752C101.022 32.7666 101.551 29.858 102.177 26.8423C102.804 23.829 103.361 20.9693 103.851 18.2631C103.089 17.3044 102.231 16.8602 101.279 16.9277C100.327 16.9951 99.4212 17.4232 98.5652 18.212C97.7093 19.0008 96.9661 20.0876 96.3412 21.4744C95.7145 22.8612 95.3614 24.4108 95.2801 26.1234C95.2265 26.4654 95.2061 26.8169 95.2191 27.1775C95.232 27.5359 95.2671 27.8871 95.3207 28.2292C95.4853 29.36 95.7977 30.1372 96.2599 30.5653C96.722 30.9935 97.2249 31.1727 97.7702 31.1053C98.3137 31.0355 98.8591 30.7796 99.4026 30.3352C99.9462 29.8907 100.382 29.3415 100.71 28.6923C100.682 30.0279 100.403 31.261 99.8722 32.3896C99.3416 33.5181 98.6483 34.4024 97.7905 35.0353C96.9328 35.6682 95.9678 35.994 94.8937 36.0126C93.8196 36.0289 92.7233 35.6265 91.6085 34.8051C90.7119 34.0861 90.0169 33.1692 89.527 32.0569C89.0371 30.9447 88.7172 29.7371 88.5675 28.4364C88.4178 27.1357 88.4251 25.7999 88.5878 24.4293C88.7505 23.0588 89.05 21.7489 89.4844 20.4993C89.9189 19.2498 90.4643 18.1026 91.1169 17.0579C91.7694 16.0131 92.5052 15.1824 93.3205 14.5658C93.9731 13.9492 94.7957 13.4372 95.7885 13.0254C96.7812 12.6158 97.8146 12.3483 98.8905 12.2296C99.9646 12.1086 101.013 12.1784 102.033 12.4343C103.054 12.6926 103.93 13.1977 104.666 13.9516L105.156 11.6386L111.236 11.5874L106.747 35.6777ZM131.683 1.36554C130.322 3.65984 129.398 6.04011 128.908 8.5066C128.418 10.9708 128.194 13.386 128.235 15.7501C128.275 18.1119 128.499 20.3482 128.908 22.454C129.314 24.5598 129.751 26.4003 130.213 27.9756C131.056 26.8121 131.886 25.5858 132.701 24.3037C133.518 23.0193 134.293 21.7279 135.027 20.4248C135.763 19.1241 136.436 17.8653 137.047 16.6507C137.659 15.436 138.197 14.3307 138.66 13.3371C139.395 11.8991 139.98 10.5542 140.414 9.30464C140.85 8.05511 141.102 6.9244 141.17 5.91454C141.238 4.90467 141.081 4.02276 140.701 3.26885C140.32 2.51494 139.68 1.88205 138.783 1.36781H146.415C147.176 2.01934 147.707 2.85002 148.006 3.85989C148.306 4.86975 148.428 5.98191 148.373 7.19887C148.317 8.4135 148.129 9.68161 147.801 11.0009C147.476 12.3203 147.073 13.6211 146.598 14.9055C146.123 16.1899 145.612 17.4139 145.067 18.5774C144.524 19.7408 144.006 20.7506 143.516 21.6069C142.836 22.8401 142.074 24.1224 141.231 25.4603C140.388 26.7959 139.53 28.0897 138.66 29.3392C137.789 30.5887 136.925 31.7615 136.068 32.8575C135.212 33.9534 134.415 34.8609 133.681 35.58L128.906 35.5286C128.089 34.0557 127.383 32.371 126.784 30.4699C126.185 28.5689 125.695 26.5748 125.316 24.4852C124.935 22.3957 124.661 20.2644 124.499 18.0911C124.336 15.9178 124.267 13.8119 124.295 11.7735C124.323 9.7352 124.458 7.81792 124.704 6.02157C124.948 4.22289 125.288 2.67308 125.724 1.37236H131.683V1.36554ZM164.371 35.6777C163.229 35.6777 162.215 35.6683 161.332 35.652C160.448 35.6357 159.407 35.6078 158.209 35.5752C158.646 32.7666 159.174 29.858 159.801 26.8423C160.428 23.829 160.984 20.9693 161.474 18.2631C160.713 17.3044 159.855 16.8602 158.903 16.9277C157.951 16.9951 157.045 17.4232 156.189 18.212C155.333 19.0008 154.59 20.0876 153.965 21.4744C153.338 22.8612 152.985 24.4108 152.904 26.1234C152.85 26.4654 152.83 26.8169 152.843 27.1775C152.856 27.5359 152.891 27.8871 152.944 28.2292C153.109 29.36 153.421 30.1372 153.883 30.5653C154.346 30.9935 154.848 31.1727 155.394 31.1053C155.937 31.0355 156.483 30.7796 157.026 30.3352C157.57 29.8907 158.006 29.3415 158.333 28.6923C158.306 30.0279 158.026 31.261 157.496 32.3896C156.965 33.5181 156.272 34.4024 155.414 35.0353C154.556 35.6682 153.591 35.994 152.517 36.0126C151.443 36.0289 150.347 35.6265 149.232 34.8051C148.335 34.0861 147.64 33.1692 147.151 32.0569C146.661 30.9447 146.341 29.7371 146.191 28.4364C146.041 27.1357 146.049 25.7999 146.211 24.4293C146.374 23.0588 146.674 21.7489 147.108 20.4993C147.543 19.2498 148.088 18.1026 148.74 17.0579C149.393 16.0131 150.129 15.1824 150.944 14.5658C151.597 13.9492 152.419 13.4372 153.412 13.0254C154.405 12.6158 155.438 12.3483 156.514 12.2296C157.588 12.1086 158.636 12.1784 159.657 12.4343C160.677 12.6926 161.554 13.1977 162.29 13.9516L162.779 11.6386L168.86 11.5874L164.371 35.6777ZM183.795 19.6524C183.986 19.208 184.108 18.7285 184.163 18.2143C184.219 17.7024 184.183 17.2137 184.061 16.7507C183.939 16.2899 183.742 15.8945 183.47 15.5711C183.198 15.2453 182.843 15.0313 182.409 14.9289C181.429 14.6543 180.518 14.7053 179.675 15.0823C178.832 15.4593 178.247 15.9644 177.92 16.5973C177.595 17.2302 177.635 17.9166 178.042 18.6519C178.451 19.3895 179.416 19.9781 180.939 20.4225C181.566 20.6296 182.205 20.8345 182.858 21.0392C183.511 21.244 184.163 21.4836 184.816 21.7582C185.631 22.1003 186.265 22.6145 186.712 23.2986C187.162 23.9827 187.441 24.7552 187.55 25.6091C187.659 26.4654 187.585 27.373 187.324 28.3316C187.066 29.2903 186.639 30.2326 186.04 31.1564C184.816 32.9015 183.509 34.1861 182.122 35.0098C180.736 35.8312 179.225 36.4314 177.593 36.8084C176.286 37.1155 175.001 37.1853 173.737 37.0131C172.472 36.8409 171.355 36.4314 170.39 35.7799C169.425 35.1284 168.69 34.2303 168.187 33.0831C167.684 31.936 167.54 30.5398 167.758 28.897L174.45 27.7149C174.069 28.1268 173.818 28.6154 173.696 29.1785C173.574 29.744 173.579 30.2839 173.716 30.7958C173.853 31.31 174.11 31.7637 174.491 32.1569C174.872 32.5501 175.375 32.7992 176.001 32.9015C176.463 33.0039 176.966 33.0133 177.512 32.9272C178.055 32.8411 178.565 32.6527 179.042 32.3619C179.517 32.071 179.933 31.6777 180.286 31.1798C180.64 30.6842 180.845 30.0768 180.898 29.3578C180.954 29.0158 180.919 28.69 180.797 28.3805C180.675 28.0733 180.517 27.8152 180.327 27.6104C180.137 27.4056 179.926 27.2332 179.695 27.0959C179.464 26.9587 179.281 26.8564 179.144 26.7889C178.029 26.3445 177.055 26.0001 176.227 25.7628C175.397 25.5231 174.546 25.1113 173.676 24.5296C172.452 23.6733 171.622 22.6797 171.187 21.5512C170.753 20.4203 170.657 19.2661 170.901 18.0841C171.146 16.9043 171.723 15.7734 172.635 14.6937C173.546 13.6141 174.764 12.7159 176.288 11.9969C176.75 11.7572 177.206 11.5338 177.656 11.3291C178.105 11.1243 178.58 10.9615 179.083 10.8405C179.586 10.7195 180.137 10.6427 180.736 10.6101C181.335 10.5752 182 10.5752 182.736 10.6101C184.422 10.7125 185.838 11.1755 186.981 11.9969C188.123 12.8183 188.925 13.984 189.387 15.4895L183.797 19.6499L183.795 19.6524ZM189.02 35.5241L192.447 16.0551H190.244L191.099 11.5338H193.181L195.179 1.4678L201.3 1.62141L199.3 11.5338L205.177 11.4827C204.715 12.4065 204.286 13.1766 203.89 13.7932C203.497 14.4098 203.055 14.8893 202.565 15.2314C202.075 15.5734 201.517 15.813 200.892 15.9503C200.265 16.0876 199.518 16.1573 198.648 16.1573L195.015 35.6752L189.016 35.5218L189.02 35.5241ZM218.933 11.6386H225.138L220.811 35.5241L214.935 35.6263L215.302 33.9325C214.622 34.3095 214.018 34.6422 213.487 34.933C212.956 35.2239 212.418 35.4473 211.875 35.6009C211.331 35.7544 210.745 35.8498 210.121 35.8824C209.494 35.9173 208.76 35.8661 207.917 35.7288C207.046 35.5566 206.318 35.2495 205.734 34.8051C205.149 34.3606 204.672 33.8114 204.306 33.1622C203.938 32.5107 203.674 31.7753 203.511 30.9539C203.347 30.1325 203.253 29.2577 203.225 28.3339C203.225 26.8261 203.321 25.3556 203.511 23.9176C203.702 22.4796 203.961 21.0672 204.286 19.6804C204.612 18.2936 204.979 16.9322 205.388 15.5965C205.797 14.2609 206.203 12.9416 206.612 11.6408H212.938C212.638 12.5995 212.352 13.4814 212.08 14.2865C211.808 15.0916 211.529 15.9479 211.245 16.8554C210.958 17.7629 210.679 18.7822 210.407 19.9131C210.135 21.0416 209.877 22.4119 209.633 24.0221C209.307 26.1466 209.279 27.7965 209.551 28.9786C209.823 30.1606 210.612 30.7841 211.917 30.8539C213.088 30.7167 214.027 30.1094 214.733 29.0297C215.441 27.9524 216.053 26.2304 216.569 23.8663L218.935 11.6408L218.933 11.6386Z" fill="#10743A"/>
<path id="Vector_2" d="M225.679 8.54696V2.59729H223.995V1.38727H228.51V2.59729H226.833V8.54696H225.681H225.679ZM229.517 8.54696V1.38477H231.242L232.263 6.26894L233.27 1.38477H235V8.54696H233.936L233.932 2.90905L232.81 8.54696H231.702L230.586 2.90905L230.582 8.54696H229.517Z" fill="#10743A"/>
</g>
</svg>
